<svg width="40.000000" height="40.000000" viewBox="0 0 40 40" fill="none" xmlns="http://www.w3.org/2000/svg" xmlns:xlink="http://www.w3.org/1999/xlink">
	<desc>
			Created with Pixso.
	</desc>
	<defs/>
	<circle id="Ellipse 33" cx="20.000000" cy="20.000000" r="20.000000" fill="#FFFFFF" fill-opacity="1.000000"/>
	<path id="Vector" d="M14.66 13.33C14.66 11.91 15.22 10.56 16.22 9.56C17.22 8.56 18.58 8 20 8C21.41 8 22.77 8.56 23.77 9.56C24.77 10.56 25.33 11.91 25.33 13.33C25.33 14.74 24.77 16.1 23.77 17.1C22.77 18.1 21.41 18.66 20 18.66C18.58 18.66 17.22 18.1 16.22 17.1C15.22 16.1 14.66 14.74 14.66 13.33ZM14.66 21.33C12.89 21.33 11.2 22.03 9.95 23.28C8.7 24.53 8 26.23 8 28C8 29.06 8.42 30.07 9.17 30.82C9.92 31.57 10.93 32 12 32L28 32C29.06 32 30.07 31.57 30.82 30.82C31.57 30.07 32 29.06 32 28C32 26.23 31.29 24.53 30.04 23.28C28.79 22.03 27.1 21.33 25.33 21.33L14.66 21.33Z" fill="#21A038" fill-opacity="1.000000" fill-rule="evenodd"/>
</svg>
