<svg width="40.000000" height="40.000000" viewBox="0 0 40 40" fill="none" xmlns="http://www.w3.org/2000/svg" xmlns:xlink="http://www.w3.org/1999/xlink">
	<desc>
			Created with Pixso.
	</desc>
	<defs/>
	<circle id="Ellipse 33" cx="20.000000" cy="20.000000" r="20.000000" fill="#FFFFFF" fill-opacity="1.000000"/>
	<path id="₽" d="M22.08 24.42L10.92 24.42L10.92 20.87L21.96 20.87C22.79 20.87 23.47 20.75 24.01 20.5C24.54 20.25 24.93 19.91 25.18 19.46C25.43 19.01 25.56 18.47 25.56 17.86C25.56 17.26 25.43 16.72 25.18 16.23C24.93 15.75 24.54 15.37 24.03 15.08C23.51 14.79 22.86 14.65 22.08 14.65L18.3 14.65L18.3 32L13.9 32L13.9 11.05L22.08 11.05C23.74 11.05 25.16 11.35 26.34 11.94C27.52 12.53 28.43 13.33 29.06 14.35C29.68 15.37 30 16.52 29.99 17.81C30 19.16 29.68 20.33 29.04 21.32C28.4 22.31 27.48 23.07 26.3 23.61C25.11 24.15 23.71 24.42 22.08 24.42ZM22.87 25.77L22.87 29.32L10.92 29.32L10.92 25.77L22.87 25.77Z" fill="#21A038" fill-opacity="1.000000" fill-rule="nonzero"/>
</svg>
