<svg width="77.000000" height="39.064209" viewBox="0 0 77 39.0642" fill="none" xmlns="http://www.w3.org/2000/svg" xmlns:xlink="http://www.w3.org/1999/xlink">
	<desc>
			Created with Pixso.
	</desc>
	<defs>
		<clipPath id="clip1_2045">
			<rect id="logo 1" width="77.000000" height="39.064102" fill="white" fill-opacity="0"/>
		</clipPath>
	</defs>
	<rect id="logo 1" width="77.000000" height="39.064102" fill="#FFFFFF" fill-opacity="0"/>
	<g clip-path="url(#clip1_2045)">
		<path id="Vector" d="M55.67 17.67C55.43 17.3 55.28 16.87 55.22 16.42C55.2 16.26 55.18 16.09 55.17 15.92C55.15 15.63 55.21 15.35 55.28 15.06C55.4 14.52 55.49 13.97 55.39 13.4C55.26 12.6 54.91 11.86 54.38 11.25C54.13 10.97 53.83 10.75 53.53 10.54C53.18 10.3 52.86 10.04 52.65 9.66C52.64 9.63 52.62 9.61 52.6 9.58C52.41 9.3 52.23 9 52.16 8.65C52.14 8.54 52.11 8.43 52.09 8.31C52.01 7.99 51.96 7.66 51.85 7.35C51.63 6.7 51.21 6.16 50.7 5.71C50.22 5.27 49.63 4.97 49 4.83C48.82 4.79 48.64 4.75 48.47 4.71C48.2 4.65 47.95 4.55 47.72 4.41C47.56 4.3 47.41 4.19 47.25 4.09C47 3.93 46.79 3.72 46.63 3.47C46.51 3.29 46.39 3.11 46.26 2.93C46.02 2.55 45.7 2.23 45.33 1.98C44.62 1.49 43.84 1.21 42.97 1.21C42.69 1.22 42.41 1.26 42.13 1.31C41.91 1.34 41.69 1.38 41.48 1.41C41.19 1.45 40.91 1.38 40.63 1.33C40.23 1.28 39.84 1.13 39.5 0.9C39.38 0.81 39.25 0.73 39.12 0.65C38.94 0.54 38.76 0.43 38.58 0.34C38.06 0.1 37.49 -0.02 36.92 0C36.19 -0.01 35.51 0.15 34.88 0.54C34.72 0.64 34.57 0.74 34.41 0.84C34.25 0.94 34.09 1.03 33.93 1.12C33.75 1.23 33.53 1.26 33.32 1.22C33.07 1.17 32.82 1.12 32.57 1.06C31.99 0.9 31.38 0.89 30.79 1.02C29.96 1.21 29.22 1.57 28.65 2.2C28.47 2.39 28.33 2.61 28.16 2.81C28.03 2.97 27.9 3.13 27.77 3.29C27.67 3.42 27.52 3.5 27.36 3.52C27.11 3.56 26.85 3.62 26.6 3.64C25.84 3.7 25.11 3.98 24.51 4.45C23.81 5 23.31 5.67 23.07 6.54C23.03 6.7 22.98 6.87 22.92 7.03C22.72 7.67 22.28 8.21 21.7 8.53C21.48 8.65 21.26 8.77 21.05 8.9C20.79 9.05 20.55 9.24 20.34 9.46C19.45 10.44 19.03 11.57 19.21 12.91C19.26 13.22 19.29 13.53 19.23 13.84C19.17 14.08 19.1 14.31 19.04 14.54C18.97 14.81 18.84 15.06 18.68 15.28C18.52 15.49 18.35 15.7 18.19 15.91C17.93 16.25 17.74 16.63 17.63 17.05C17.56 17.3 17.51 17.55 17.48 17.81C17.4 18.56 17.48 19.28 17.83 19.96C17.94 20.18 18.06 20.39 18.17 20.61C18.28 20.81 18.39 21.02 18.42 21.25C18.45 21.54 18.56 21.82 18.55 22.12C18.54 22.25 18.58 22.38 18.58 22.51C18.6 22.81 18.52 23.09 18.45 23.38C18.35 23.79 18.24 24.2 18.24 24.63C18.26 24.85 18.28 25.08 18.32 25.31C18.45 26.06 18.78 26.76 19.28 27.33C19.53 27.61 19.82 27.83 20.11 28.05C20.43 28.28 20.69 28.56 20.9 28.89C21.11 29.23 21.25 29.61 21.3 30.01C21.36 30.4 21.39 30.79 21.54 31.16C22.04 32.45 22.92 33.33 24.26 33.72C24.54 33.8 24.81 33.87 25.08 33.96C25.45 34.09 25.77 34.33 25.98 34.66C26.1 34.86 26.22 35.06 26.34 35.27C26.69 35.94 27.24 36.49 27.91 36.84C28.47 37.15 29.06 37.36 29.7 37.36C30 37.36 30.3 37.33 30.6 37.31C30.88 37.29 31.17 37.24 31.45 37.29C31.6 37.32 31.75 37.36 31.9 37.4C32.27 37.49 32.63 37.61 32.94 37.85C33.07 37.96 33.22 38.07 33.36 38.18C33.92 38.63 34.6 38.91 35.32 38.98C36.12 39.07 36.89 38.99 37.62 38.6C37.84 38.48 38.05 38.36 38.27 38.24C38.48 38.12 38.71 38.04 38.94 38C39.2 37.96 39.45 37.92 39.71 37.89C39.8 37.88 39.89 37.88 39.98 37.89C40.28 37.95 40.58 38 40.88 38.08C41.45 38.22 42.03 38.28 42.61 38.17C43.67 37.96 44.56 37.47 45.2 36.58C45.23 36.54 45.27 36.5 45.3 36.46C45.54 36.11 45.86 35.82 46.22 35.59C46.63 35.34 47.05 35.15 47.53 35.09C47.83 35.05 48.12 35 48.4 34.93C49.53 34.64 50.76 33.56 51.12 32.3C51.16 32.16 51.2 32.02 51.24 31.88C51.35 31.45 51.49 31.04 51.76 30.67C52.04 30.3 52.33 29.96 52.74 29.72C52.86 29.65 52.98 29.58 53.1 29.5C53.35 29.35 53.58 29.17 53.79 28.97C54.28 28.48 54.64 27.87 54.84 27.21C54.98 26.77 55.04 26.3 54.99 25.84C54.96 25.54 54.92 25.25 54.88 24.96C54.84 24.7 54.85 24.44 54.9 24.19C54.94 23.99 54.99 23.8 55.04 23.61C55.08 23.4 55.16 23.2 55.28 23.02C55.4 22.82 55.54 22.63 55.67 22.44C55.97 22.04 56.19 21.57 56.32 21.09C56.39 20.77 56.43 20.45 56.44 20.13C56.45 19.51 56.35 18.9 56.05 18.33C55.94 18.11 55.81 17.89 55.67 17.67ZM55.29 20.38C55.24 20.9 55.05 21.39 54.74 21.8C54.57 22.03 54.41 22.27 54.26 22.51C54.12 22.75 54.01 23.01 53.95 23.28C53.92 23.37 53.89 23.45 53.86 23.54C53.85 23.56 53.84 23.58 53.84 23.6C53.8 23.81 53.77 24.03 53.74 24.24C53.71 24.54 53.71 24.84 53.76 25.14C53.79 25.44 53.84 25.74 53.86 26.05C53.92 26.79 53.45 27.94 52.64 28.45C52.44 28.58 52.23 28.7 52.03 28.83C51.66 29.06 51.33 29.36 51.07 29.71C51.05 29.75 51.01 29.78 50.98 29.81C50.94 29.87 50.89 29.92 50.86 29.98C50.83 30.02 50.81 30.07 50.78 30.11C50.54 30.42 50.37 30.78 50.26 31.16C50.2 31.37 50.14 31.58 50.09 31.79C49.9 32.56 49.43 33.11 48.79 33.53C48.46 33.74 48.09 33.87 47.71 33.92C47.38 33.97 47.05 34.02 46.74 34.1C46.51 34.17 46.3 34.26 46.09 34.36C45.98 34.41 45.89 34.46 45.79 34.5C45.76 34.51 45.74 34.53 45.72 34.54C45.6 34.62 45.48 34.71 45.36 34.8C45.07 34.99 44.82 35.23 44.61 35.5C44.49 35.65 44.37 35.8 44.25 35.96C43.87 36.47 43.36 36.79 42.76 36.97C42.49 37.05 42.21 37.09 41.93 37.09C41.68 37.09 41.44 37.05 41.2 36.98C40.87 36.91 40.55 36.82 40.22 36.78C39.98 36.74 39.74 36.77 39.5 36.77C39.46 36.77 39.42 36.78 39.38 36.79C39.3 36.78 39.23 36.78 39.15 36.79C38.8 36.89 38.42 36.9 38.08 37.08C37.86 37.2 37.63 37.31 37.41 37.43C37.13 37.58 36.87 37.74 36.56 37.8C35.67 37.98 34.84 37.88 34.1 37.31C33.88 37.15 33.66 36.98 33.44 36.82C33.16 36.63 32.85 36.49 32.53 36.4C32.46 36.38 32.4 36.35 32.33 36.32C32.3 36.31 32.28 36.3 32.25 36.29C32.03 36.25 31.82 36.21 31.6 36.17C31.31 36.13 31 36.12 30.71 36.16C30.45 36.18 30.2 36.21 29.95 36.23C29.37 36.27 28.84 36.08 28.35 35.79C27.96 35.57 27.63 35.24 27.4 34.85C27.28 34.62 27.14 34.4 27.01 34.17C26.62 33.5 25.98 33.01 25.23 32.81C25.02 32.75 24.82 32.69 24.61 32.64C23.76 32.43 23.19 31.89 22.76 31.15C22.57 30.81 22.51 30.44 22.46 30.06C22.41 29.7 22.36 29.33 22.22 28.99C21.94 28.34 21.57 27.75 21 27.3C20.84 27.18 20.69 27.06 20.53 26.94C19.96 26.52 19.64 25.95 19.47 25.28C19.36 24.84 19.36 24.39 19.48 23.95C19.57 23.63 19.64 23.3 19.69 22.97C19.72 22.72 19.72 22.47 19.7 22.22C19.69 22.15 19.67 21.9 19.65 21.67C19.63 21.51 19.61 21.35 19.59 21.22C19.54 20.77 19.35 20.4 19.13 20C19.02 19.8 18.92 19.6 18.82 19.39C18.62 18.98 18.55 18.52 18.59 18.07C18.61 17.87 18.64 17.68 18.68 17.48C18.76 17.15 18.91 16.84 19.12 16.57C19.28 16.35 19.45 16.13 19.62 15.91C19.84 15.6 20.01 15.26 20.12 14.89C20.19 14.7 20.23 14.49 20.29 14.3C20.41 13.88 20.4 13.44 20.37 13.01C20.35 12.83 20.34 12.66 20.32 12.48C20.26 11.83 20.45 11.24 20.8 10.7C21.02 10.34 21.34 10.03 21.71 9.82C21.96 9.69 22.2 9.55 22.44 9.41C22.77 9.21 23.05 8.95 23.3 8.66C23.66 8.22 23.92 7.71 24.07 7.17C24.12 7.01 24.17 6.85 24.22 6.69C24.45 5.84 25.48 4.88 26.57 4.79C26.85 4.77 27.13 4.71 27.41 4.68C27.67 4.64 27.92 4.56 28.15 4.43C28.37 4.3 28.57 4.13 28.73 3.92C28.89 3.72 29.06 3.52 29.2 3.31C29.7 2.59 30.41 2.22 31.26 2.09C31.64 2.03 32.01 2.1 32.38 2.18C32.69 2.25 33.01 2.31 33.32 2.36C33.75 2.42 34.15 2.3 34.52 2.09C34.78 1.95 35.03 1.8 35.27 1.63C36.06 1.1 36.9 1.02 37.8 1.26C38.01 1.32 38.22 1.41 38.4 1.54C38.64 1.69 38.88 1.85 39.12 2C39.44 2.18 39.78 2.31 40.14 2.39C40.34 2.44 40.54 2.46 40.73 2.5C41.2 2.6 41.66 2.55 42.13 2.46C42.43 2.41 42.73 2.33 43.03 2.35C43.93 2.41 44.7 2.74 45.26 3.47C45.42 3.69 45.56 3.92 45.72 4.14C45.95 4.48 46.24 4.77 46.58 5.02C46.75 5.15 46.94 5.25 47.12 5.37C47.47 5.61 47.87 5.73 48.27 5.83C48.42 5.86 48.56 5.9 48.71 5.93C49.53 6.1 50.13 6.6 50.57 7.29C50.78 7.61 50.86 7.97 50.94 8.33C51 8.64 51.07 8.95 51.16 9.25C51.24 9.47 51.33 9.67 51.44 9.87C51.48 9.96 51.53 10.04 51.57 10.12C51.58 10.14 51.59 10.17 51.61 10.2C51.69 10.3 51.78 10.41 51.86 10.52C52.09 10.83 52.36 11.1 52.67 11.32C52.81 11.42 52.95 11.52 53.09 11.62C53.68 12.03 54.02 12.61 54.2 13.28C54.34 13.77 54.3 14.26 54.19 14.75C54.13 15.01 54.08 15.29 54.04 15.56C54 15.82 54.01 16.1 54.07 16.36C54.07 16.37 54.07 16.39 54.08 16.4C54.04 16.63 54.15 16.83 54.19 17.04C54.25 17.43 54.42 17.78 54.62 18.11C54.73 18.3 54.84 18.49 54.95 18.68C55.27 19.2 55.34 19.78 55.29 20.38L55.29 20.38Z" fill="#FFFFFF" fill-opacity="1.000000" fill-rule="nonzero"/>
		<path id="Vector" d="M47.5 19.51C47.49 13.68 42.76 8.97 36.99 8.95C31.12 8.93 26.4 13.72 26.39 19.49C26.38 25.26 31.08 30.06 36.94 30.06C42.76 30.06 47.5 25.33 47.5 19.51ZM36.92 29.21C31.54 29.2 27.24 24.81 27.24 19.5C27.25 16.93 28.27 14.46 30.09 12.65C31.91 10.83 34.37 9.81 36.95 9.8C42.38 9.81 46.65 14.25 46.64 19.52C46.64 24.78 42.36 29.22 36.92 29.21Z" fill="#FFFFFF" fill-opacity="1.000000" fill-rule="nonzero"/>
		<path id="Vector" d="M48.07 12.99L47.53 13.18C47.55 13.24 47.56 13.28 47.58 13.33C47.66 13.57 47.75 13.8 47.82 14.05C47.83 14.09 47.86 14.12 47.89 14.15C47.92 14.18 47.96 14.2 48 14.21C48.76 14.4 49.53 14.6 50.29 14.8C50.34 14.81 50.39 14.83 50.44 14.84C50.44 14.85 50.44 14.87 50.44 14.88C50.19 14.97 49.94 15.06 49.69 15.14C49.43 15.23 49.18 15.33 48.91 15.4L48.81 15.15L48.27 15.34L48.71 16.6L49.25 16.41L49.14 16.07C49.81 15.83 50.48 15.6 51.15 15.37C51.19 15.49 51.23 15.6 51.28 15.71L51.81 15.52C51.8 15.47 51.79 15.43 51.77 15.38C51.69 15.14 51.6 14.91 51.53 14.66C51.52 14.61 51.49 14.57 51.45 14.54C51.42 14.5 51.37 14.48 51.32 14.48C50.54 14.29 49.77 14.09 49 13.9C48.95 13.89 48.91 13.87 48.87 13.86L48.87 13.82L50.42 13.28C50.46 13.37 50.49 13.45 50.53 13.53L51.06 13.34L50.63 12.1L50.1 12.29C50.13 12.41 50.16 12.51 50.19 12.62L48.19 13.31L48.07 12.99Z" fill="#FFFFFF" fill-opacity="1.000000" fill-rule="nonzero"/>
		<path id="Vector" d="M45.61 9.72L45.16 10.06C45.19 10.1 45.21 10.14 45.24 10.17C45.4 10.38 45.57 10.58 45.72 10.8C45.75 10.83 45.78 10.86 45.82 10.88C45.86 10.89 45.9 10.9 45.94 10.89C46.18 10.87 46.42 10.85 46.66 10.83C47.12 10.8 47.59 10.76 48.05 10.72C48.19 10.71 48.32 10.71 48.46 10.7L48.47 10.73L47.19 11.73C47.12 11.65 47.07 11.59 47.01 11.52L46.56 11.87L47.39 12.92L47.83 12.57L47.62 12.28C48.18 11.84 48.73 11.4 49.29 10.97L49.52 11.25L49.97 10.9C49.94 10.86 49.92 10.82 49.89 10.79C49.73 10.58 49.56 10.37 49.4 10.15C49.38 10.12 49.35 10.1 49.32 10.08C49.28 10.07 49.24 10.06 49.21 10.07C48.47 10.14 47.73 10.2 46.99 10.26C46.87 10.27 46.76 10.27 46.65 10.28C46.64 10.27 46.63 10.26 46.63 10.25C47.06 9.91 47.49 9.57 47.93 9.23L48.11 9.43L48.56 9.08C48.29 8.74 48.02 8.4 47.75 8.05L47.3 8.4C47.37 8.5 47.43 8.58 47.5 8.67L45.82 9.98L45.61 9.72Z" fill="#FFFFFF" fill-opacity="1.000000" fill-rule="nonzero"/>
		<path id="Vector" d="M22.74 15.4C23.42 15.63 24.09 15.85 24.76 16.09L24.66 16.41L25.2 16.59C25.35 16.15 25.49 15.72 25.64 15.28C25.46 15.21 25.29 15.15 25.11 15.09C25.06 15.21 25.02 15.31 24.98 15.42L22.97 14.73C23.11 14.29 23.26 13.86 23.41 13.42L25.43 14.11C25.39 14.22 25.36 14.32 25.33 14.44L25.87 14.62C26.02 14.17 26.17 13.74 26.31 13.3L25.78 13.12L25.66 13.45L23.64 12.76C23.67 12.64 23.71 12.54 23.74 12.43L23.2 12.25C22.83 13.35 22.46 14.43 22.08 15.54L22.62 15.72C22.66 15.61 22.7 15.51 22.74 15.4Z" fill="#FFFFFF" fill-opacity="1.000000" fill-rule="nonzero"/>
		<path id="Vector" d="M37.47 6.95C37.72 6.97 37.97 6.99 38.21 6.99C38.44 7 38.66 6.92 38.84 6.78C39.01 6.64 39.13 6.44 39.17 6.21C39.23 5.92 39.18 5.66 38.94 5.45C38.93 5.44 38.92 5.42 38.91 5.4C38.98 5.33 39.05 5.25 39.12 5.17C39.27 4.96 39.28 4.71 39.22 4.47C39.12 4.03 38.77 3.75 38.3 3.71C37.83 3.67 37.36 3.64 36.89 3.61C36.83 3.61 36.78 3.61 36.72 3.61C36.69 3.8 36.68 3.99 36.68 4.17L37 4.22C36.96 4.93 36.92 5.63 36.86 6.33L36.53 6.33C36.51 6.52 36.5 6.7 36.49 6.88C36.54 6.89 36.57 6.89 36.6 6.9C36.89 6.92 37.18 6.94 37.47 6.95ZM37.71 4.26C37.9 4.27 38.07 4.27 38.24 4.29C38.45 4.32 38.58 4.59 38.5 4.81C38.48 4.88 38.43 4.95 38.37 4.99C38.3 5.03 38.23 5.05 38.15 5.05C38.01 5.04 37.86 5.03 37.72 5.02C37.7 5.01 37.68 5 37.66 5C37.68 4.75 37.69 4.51 37.71 4.26ZM37.62 5.59C37.83 5.6 38.01 5.62 38.19 5.63C38.22 5.63 38.25 5.64 38.28 5.66C38.42 5.73 38.5 5.92 38.45 6.12C38.44 6.2 38.4 6.28 38.34 6.33C38.27 6.39 38.19 6.42 38.11 6.42C37.94 6.41 37.78 6.39 37.62 6.38C37.6 6.38 37.59 6.37 37.57 6.36C37.59 6.11 37.6 5.86 37.62 5.59Z" fill="#FFFFFF" fill-opacity="1.000000" fill-rule="nonzero"/>
		<path id="Vector" d="M42.68 7.66C42.57 7.82 42.46 7.97 42.36 8.13L43.5 8.92L43.82 8.45L43.55 8.24L44.18 7.31C44.2 7.38 44.22 7.41 44.22 7.45C44.3 7.85 44.37 8.26 44.45 8.66C44.46 8.71 44.46 8.76 44.45 8.81C44.44 8.86 44.42 8.9 44.39 8.94C44.3 9.07 44.21 9.2 44.12 9.34L45 9.95C45.12 9.77 45.23 9.6 45.35 9.44C45.32 9.41 45.29 9.38 45.25 9.36C45.21 9.34 45.17 9.31 45.15 9.27C45.13 9.23 45.11 9.19 45.11 9.14C45.04 8.74 44.97 8.33 44.89 7.93C44.89 7.88 44.89 7.84 44.89 7.79C44.96 7.78 45.02 7.77 45.08 7.76C45.4 7.73 45.73 7.7 46.05 7.66C46.22 7.64 46.38 7.6 46.52 7.77L46.88 7.25L45.97 6.63C45.86 6.78 45.77 6.91 45.68 7.05C45.66 7.08 45.63 7.11 45.6 7.13C45.57 7.15 45.54 7.16 45.5 7.16C45.11 7.2 44.72 7.25 44.32 7.3C44.28 7.3 44.24 7.3 44.2 7.29L44.75 6.49L45.04 6.68L45.36 6.21L44.22 5.42L43.9 5.89L44.16 6.09C44.01 6.37 43.03 7.76 42.94 7.83L42.68 7.66Z" fill="#FFFFFF" fill-opacity="1.000000" fill-rule="nonzero"/>
		<path id="Vector" d="M24.54 11.26L26.23 12.44L26.04 12.73L26.51 13.05L28 10.91L27.05 10.25L26.66 10.81C26.82 10.93 26.97 11.03 27.13 11.15C26.97 11.39 26.8 11.62 26.64 11.87L25.99 11.42L26.36 10.87L25.86 10.53C25.74 10.71 25.61 10.88 25.48 11.06L24.93 10.68C25.11 10.43 25.26 10.2 25.43 9.97C25.57 10.06 25.69 10.14 25.82 10.23L26.21 9.66L25.3 9.04L23.81 11.18L24.33 11.54L24.54 11.26Z" fill="#FFFFFF" fill-opacity="1.000000" fill-rule="nonzero"/>
		<path id="Vector" d="M34.31 7.24C34.87 7.24 35.3 7.04 35.59 6.7C36.22 5.96 36.1 4.78 35.32 4.17C35.02 3.93 34.64 3.81 34.26 3.84C33.87 3.86 33.51 4.04 33.25 4.32C32.76 4.84 32.66 5.68 33.01 6.34C33.31 6.9 33.78 7.2 34.31 7.24ZM33.66 4.91C33.72 4.8 33.79 4.72 33.89 4.65C33.98 4.58 34.09 4.53 34.2 4.51C34.31 4.49 34.43 4.49 34.54 4.52C34.66 4.55 34.76 4.6 34.85 4.68C35.05 4.85 35.19 5.09 35.25 5.35C35.3 5.61 35.27 5.89 35.16 6.13C35.1 6.24 35.02 6.34 34.92 6.41C34.82 6.49 34.7 6.54 34.58 6.56C34.46 6.58 34.33 6.57 34.21 6.54C34.09 6.5 33.98 6.43 33.89 6.35C33.77 6.23 33.68 6.1 33.62 5.94C33.55 5.79 33.52 5.63 33.52 5.46C33.52 5.27 33.57 5.08 33.66 4.91Z" fill="#FFFFFF" fill-opacity="1.000000" fill-rule="nonzero"/>
		<path id="Vector" d="M40.31 7.4C40.59 7.61 40.92 7.71 41.27 7.7C41.61 7.69 41.94 7.56 42.2 7.33C42.26 7.27 42.31 7.21 42.37 7.14L41.79 6.74C41.75 6.78 41.72 6.81 41.69 6.83C41.21 7.2 40.59 7 40.42 6.43C40.36 6.24 40.36 6.05 40.4 5.86C40.49 5.5 40.67 5.21 41.01 5.05C41.39 4.87 41.88 5.01 42.02 5.37C42.05 5.45 42.1 5.52 42.17 5.58C42.23 5.64 42.32 5.67 42.4 5.69C42.44 5.69 42.47 5.71 42.5 5.72C42.58 5.74 42.65 5.76 42.74 5.79C42.82 5.56 42.89 5.34 42.96 5.12C42.85 5.08 42.75 5.04 42.64 5.01C42.6 5 42.56 4.98 42.52 4.96C42.49 4.93 42.46 4.89 42.43 4.86C42.35 4.7 42.22 4.58 42.07 4.5C41.87 4.39 41.65 4.32 41.42 4.31C41.2 4.29 40.97 4.33 40.76 4.42C40.08 4.68 39.63 5.39 39.67 6.14C39.69 6.66 39.89 7.09 40.31 7.4Z" fill="#FFFFFF" fill-opacity="1.000000" fill-rule="nonzero"/>
		<path id="Vector" d="M28.67 10.13C29.36 9.98 29.93 9.3 29.84 8.51C29.84 8.39 29.8 8.26 29.73 8.15L29.11 8.44C29.12 8.5 29.13 8.53 29.13 8.57C29.16 8.69 29.15 8.82 29.12 8.94C29.08 9.06 29.02 9.17 28.93 9.26C28.84 9.35 28.73 9.41 28.61 9.45C28.49 9.49 28.37 9.5 28.24 9.48C27.7 9.4 27.25 8.88 27.25 8.33C27.26 7.85 27.66 7.46 28.15 7.55C28.19 7.56 28.24 7.56 28.29 7.54C28.34 7.53 28.38 7.5 28.41 7.46C28.5 7.38 28.6 7.31 28.69 7.22C28.72 7.2 28.75 7.17 28.78 7.14L28.32 6.61C28.22 6.69 28.13 6.77 28.04 6.84C27.99 6.89 27.93 6.91 27.86 6.91C27.69 6.91 27.53 6.95 27.38 7.03C27.1 7.17 26.88 7.39 26.74 7.66C26.44 8.29 26.51 8.89 26.91 9.43C27.35 10.02 27.94 10.28 28.67 10.13Z" fill="#FFFFFF" fill-opacity="1.000000" fill-rule="nonzero"/>
		<path id="Vector" d="M30.04 6.4L29.86 6.01L30.24 5.82C30.55 6.48 30.86 7.11 31.18 7.76L30.88 7.92C30.96 8.1 31.04 8.26 31.13 8.43C31.35 8.32 31.56 8.22 31.76 8.12C31.97 8.02 32.18 7.93 32.37 7.81L32.12 7.31L31.81 7.45L30.87 5.51L31.3 5.31L31.49 5.69L32.11 5.39L31.68 4.5L28.99 5.81L29.42 6.69L30.04 6.4Z" fill="#FFFFFF" fill-opacity="1.000000" fill-rule="nonzero"/>
		<path id="Vector" d="M38.9 33.22L39.24 33.2L39.24 32.7C39.18 32.7 39.14 32.7 39.1 32.7C38.88 32.71 38.67 32.72 38.46 32.72C38.41 32.72 38.37 32.73 38.33 32.75C38.3 32.77 38.27 32.8 38.24 32.84C38.05 33.12 37.85 33.4 37.65 33.68C37.62 33.72 37.59 33.75 37.56 33.79C37.53 33.76 37.51 33.73 37.49 33.71C37.25 33.44 37.02 33.16 36.79 32.88C36.77 32.86 36.74 32.84 36.71 32.82C36.68 32.81 36.65 32.8 36.62 32.81C36.46 32.82 36.3 32.82 36.15 32.82C36.04 32.83 35.94 32.84 35.84 32.85C35.84 32.95 35.83 33.03 35.84 33.11C35.84 33.19 35.85 33.27 35.86 33.35L36.18 33.35C36.19 33.67 36.21 33.98 36.22 34.3L35.89 34.33C35.9 34.5 35.91 34.66 35.91 34.83L37.03 34.78L37.03 34.29L36.8 34.27C36.79 34.07 36.78 33.88 36.77 33.69L36.81 33.68L37.6 34.58C37.73 34.4 37.84 34.24 37.96 34.08C38.07 33.93 38.18 33.77 38.31 33.62L38.34 33.63C38.35 33.82 38.36 34.01 38.36 34.2L38.15 34.23C38.16 34.4 38.17 34.56 38.18 34.73L39.29 34.68L39.29 34.17L38.94 34.17C38.93 33.85 38.92 33.54 38.9 33.22Z" fill="#FFFFFF" fill-opacity="1.000000" fill-rule="nonzero"/>
		<path id="Vector" d="M40.22 32.44C40.19 32.46 40.17 32.48 40.13 32.51C40.11 32.44 40.11 32.37 40.12 32.3C40.14 32.23 40.17 32.17 40.22 32.12C40.34 32 40.48 31.91 40.64 31.86C40.8 31.81 40.97 31.76 41.14 31.71C41.21 31.68 41.27 31.66 41.35 31.64C41.29 31.44 41.24 31.26 41.18 31.06C41.02 31.1 40.88 31.14 40.74 31.18C40.73 31.18 40.72 31.19 40.71 31.19C40.71 31.2 40.7 31.21 40.7 31.22C40.71 31.33 40.62 31.32 40.56 31.34C40.36 31.41 40.18 31.5 40.02 31.62C39.69 31.88 39.53 32.22 39.61 32.64C39.68 32.97 39.77 33.3 39.87 33.62C39.92 33.75 39.99 33.86 40.07 33.96C40.49 34.44 41.2 34.33 41.57 33.99C41.92 33.68 42 33.19 41.78 32.73C41.72 32.59 41.62 32.46 41.5 32.37C41.38 32.27 41.23 32.2 41.08 32.17C40.92 32.14 40.76 32.15 40.61 32.2C40.46 32.25 40.33 32.33 40.22 32.44ZM40.87 33.76C40.59 33.76 40.34 33.5 40.33 33.21C40.34 33.07 40.39 32.94 40.48 32.84C40.58 32.75 40.71 32.69 40.84 32.69C41.12 32.69 41.33 32.94 41.33 33.26C41.34 33.32 41.33 33.38 41.31 33.44C41.28 33.5 41.25 33.56 41.21 33.6C41.16 33.65 41.11 33.69 41.05 33.71C41 33.74 40.93 33.76 40.87 33.76L40.87 33.76Z" fill="#FFFFFF" fill-opacity="1.000000" fill-rule="nonzero"/>
		<path id="Vector" d="M47.2 30.14L46.59 29.41L46.79 29.21L46.47 28.83L45.6 29.57L45.92 29.95L46.14 29.78L46.3 29.97L45.63 30.54C45.58 30.47 45.53 30.41 45.47 30.33L45.67 30.16C45.56 30.03 45.46 29.9 45.35 29.78L44.48 30.51C44.59 30.64 44.69 30.77 44.8 30.89L45.03 30.72L45.65 31.45L45.43 31.65C45.54 31.78 45.64 31.9 45.75 32.03L46.63 31.3C46.51 31.16 46.41 31.04 46.3 30.91C46.23 30.97 46.16 31.02 46.09 31.08L45.88 30.83L46.55 30.27L46.76 30.52L46.55 30.7L46.88 31.09L47.75 30.35L47.43 29.97L47.2 30.14Z" fill="#FFFFFF" fill-opacity="1.000000" fill-rule="nonzero"/>
		<path id="Vector" d="M44.63 32.13C44.48 31.84 44.34 31.57 44.2 31.29L44.4 31.16L44.17 30.72C43.97 30.82 43.79 30.92 43.61 31C43.57 31.02 43.53 31.05 43.51 31.08C43.48 31.12 43.46 31.16 43.46 31.2C43.38 31.63 43.3 32.06 43.22 32.49C43.21 32.53 43.19 32.58 43.18 32.62L42.85 31.98L43.05 31.86C42.97 31.71 42.9 31.57 42.82 31.41C42.5 31.58 42.19 31.74 41.88 31.9L42.11 32.34L42.33 32.25L42.77 33.09L42.57 33.22C42.64 33.38 42.71 33.52 42.8 33.66C42.99 33.56 43.16 33.47 43.34 33.38C43.39 33.37 43.43 33.33 43.46 33.29C43.49 33.25 43.51 33.21 43.51 33.16C43.59 32.74 43.67 32.32 43.76 31.9C43.77 31.86 43.78 31.82 43.8 31.78C43.92 32 44.02 32.2 44.11 32.4L43.91 32.53L44.14 32.97L45.08 32.48C45 32.32 44.92 32.18 44.85 32.04L44.63 32.13Z" fill="#FFFFFF" fill-opacity="1.000000" fill-rule="nonzero"/>
		<path id="Vector" d="M25.21 26.8L25.65 26.58C25.3 25.9 24.97 25.23 24.63 24.56C24.48 24.63 24.33 24.71 24.18 24.79C24.23 24.89 24.26 24.96 24.3 25.05C24.14 25.13 24 25.2 23.85 25.26C23.59 25.35 23.39 25.29 23.24 25.07C23.2 25.02 23.17 24.98 23.14 24.92L22.7 25.15C22.75 25.26 22.8 25.35 22.85 25.44C22.93 25.6 23.06 25.73 23.22 25.81C23.38 25.88 23.57 25.91 23.74 25.87C23.98 25.82 24.2 25.74 24.42 25.63C24.46 25.61 24.51 25.59 24.57 25.56C24.66 25.73 24.74 25.88 24.81 26.05L23.95 26.48L23.81 26.23C23.56 26.33 23.44 26.4 23.38 26.48L23.91 27.55C24.07 27.48 24.22 27.4 24.36 27.32L24.21 27C24.51 26.85 24.78 26.7 25.07 26.57L25.21 26.8Z" fill="#FFFFFF" fill-opacity="1.000000" fill-rule="nonzero"/>
		<path id="Vector" d="M32.17 32.35C32.11 32.51 31.96 32.55 31.84 32.63C31.82 32.63 31.8 32.63 31.78 32.62C31.73 32.6 31.67 32.58 31.61 32.55C31.71 32.29 31.8 32.05 31.9 31.79L31.08 31.47C31.01 31.63 30.96 31.78 30.9 31.94C30.95 31.96 31 31.98 31.04 32C31.08 32.02 31.13 32.04 31.18 32.06C31.06 32.36 30.95 32.65 30.83 32.95L30.54 32.85L30.36 33.32L31.37 33.72L31.55 33.25L31.37 33.16C31.4 33.08 31.43 33.01 31.46 32.94C31.52 32.94 31.58 32.96 31.63 33C31.67 33.03 31.71 33.09 31.72 33.15C31.79 33.39 31.88 33.62 31.96 33.85C31.97 33.9 32 33.94 32.04 33.97C32.18 34.04 32.33 34.09 32.49 34.15L32.67 33.68C32.6 33.65 32.54 33.63 32.49 33.61C32.45 33.59 32.42 33.57 32.4 33.53C32.32 33.35 32.25 33.17 32.17 32.98C32.35 32.87 32.52 32.77 32.69 32.68C32.73 32.67 32.77 32.67 32.81 32.69C32.88 32.71 32.95 32.74 33.03 32.76C33.09 32.6 33.15 32.46 33.21 32.3L32.33 31.96C32.28 32.1 32.22 32.23 32.17 32.35Z" fill="#FFFFFF" fill-opacity="1.000000" fill-rule="nonzero"/>
		<path id="Vector" d="M51.8 20.65C51.67 20.64 51.54 20.65 51.41 20.65C51.19 20.64 51.15 20.62 51.08 20.4C51.05 20.31 51.02 20.21 50.99 20.11C50.98 20.09 50.97 20.07 50.96 20.04C50.95 20.01 50.93 19.97 50.9 19.95C50.87 19.93 50.83 19.92 50.79 19.92C50.75 19.92 50.71 19.93 50.68 19.95C50.65 19.97 50.63 20.01 50.62 20.04C50.57 20.18 50.53 20.32 50.48 20.45C50.43 20.61 50.39 20.64 50.22 20.64C50.08 20.65 49.93 20.64 49.79 20.65C49.75 20.64 49.7 20.65 49.67 20.68C49.63 20.7 49.6 20.74 49.59 20.78C49.56 20.86 49.59 20.93 49.68 21C49.79 21.09 49.91 21.17 50.02 21.26C50.16 21.37 50.18 21.42 50.13 21.59C50.08 21.73 50.04 21.87 50 22.01C49.98 22.05 49.97 22.09 49.99 22.14C50 22.18 50.03 22.21 50.06 22.24C50.1 22.26 50.14 22.27 50.18 22.27C50.22 22.27 50.26 22.25 50.29 22.22C50.38 22.16 50.46 22.09 50.55 22.03C50.78 21.86 50.8 21.86 51.03 22.02C51.12 22.09 51.2 22.15 51.29 22.21C51.38 22.27 51.46 22.28 51.53 22.22C51.6 22.17 51.62 22.1 51.59 21.99C51.58 21.97 51.57 21.94 51.56 21.92C51.53 21.81 51.49 21.7 51.46 21.58C51.41 21.43 51.43 21.37 51.56 21.27C51.67 21.18 51.79 21.09 51.91 21C51.94 20.98 51.96 20.96 51.97 20.94C51.99 20.91 52 20.88 52 20.85C52.01 20.82 52 20.8 51.99 20.77C51.98 20.75 51.97 20.72 51.95 20.7C51.93 20.68 51.91 20.67 51.88 20.66C51.86 20.65 51.83 20.65 51.8 20.65Z" fill="#FFFFFF" fill-opacity="1.000000" fill-rule="nonzero"/>
		<path id="Vector" d="M23.24 21.96C23.35 22.04 23.46 22.12 23.57 22.19C23.68 22.27 23.75 22.28 23.83 22.22C23.92 22.15 23.91 22.06 23.88 21.96C23.84 21.84 23.8 21.72 23.76 21.6C23.71 21.42 23.72 21.37 23.87 21.26C23.99 21.17 24.11 21.08 24.22 20.99C24.33 20.9 24.34 20.78 24.24 20.7C24.19 20.67 24.14 20.65 24.08 20.65C23.94 20.64 23.8 20.65 23.66 20.65C23.5 20.64 23.45 20.61 23.4 20.45C23.35 20.32 23.31 20.18 23.27 20.05C23.26 20.01 23.23 19.98 23.2 19.95C23.17 19.93 23.13 19.92 23.1 19.92C23.06 19.92 23.02 19.93 22.99 19.95C22.96 19.97 22.93 20 22.92 20.04C22.91 20.07 22.9 20.11 22.89 20.14C22.85 20.26 22.81 20.37 22.77 20.49C22.76 20.53 22.73 20.58 22.69 20.61C22.65 20.63 22.6 20.65 22.56 20.65C22.48 20.64 22.4 20.65 22.33 20.65L22.33 20.65L22.1 20.65C22.06 20.64 22.01 20.65 21.97 20.67C21.94 20.7 21.91 20.73 21.89 20.77C21.86 20.85 21.89 20.93 21.99 21.01C22.09 21.09 22.2 21.17 22.31 21.26C22.46 21.37 22.48 21.42 22.42 21.61C22.38 21.74 22.33 21.87 22.3 22C22.28 22.06 22.29 22.12 22.31 22.17C22.35 22.28 22.47 22.3 22.58 22.23C22.7 22.15 22.82 22.05 22.94 21.97C22.98 21.93 23.03 21.91 23.09 21.91C23.14 21.91 23.2 21.93 23.24 21.96Z" fill="#FFFFFF" fill-opacity="1.000000" fill-rule="nonzero"/>
		<path id="Vector" d="M50.08 26.23C49.78 26.07 49.49 25.92 49.21 25.75L49.37 25.46L49.71 25.63L49.98 25.13L49.21 24.72L48.08 26.83C48.34 26.98 48.59 27.11 48.85 27.24L49.11 26.75L48.78 26.56L48.94 26.27C49.23 26.43 49.52 26.58 49.8 26.74C49.75 26.84 49.71 26.93 49.67 27.02L50.11 27.25L50.69 26.17L50.25 25.93C50.19 26.03 50.13 26.12 50.08 26.23Z" fill="#FFFFFF" fill-opacity="1.000000" fill-rule="nonzero"/>
		<path id="Vector" d="M48.95 28.11C48.87 28.05 48.8 28 48.73 27.94C48.58 27.82 48.43 27.69 48.26 27.58C47.98 27.39 47.7 27.41 47.43 27.63C47.25 27.78 47.1 27.97 47.01 28.2C46.95 28.35 46.91 28.51 46.91 28.68L47.28 28.76C47.3 28.7 47.32 28.66 47.33 28.61C47.39 28.41 47.51 28.24 47.67 28.1C47.82 27.99 47.94 28 48.07 28.14C48 28.22 47.93 28.28 47.87 28.36C47.73 28.5 47.62 28.67 47.57 28.86C47.54 28.97 47.54 29.08 47.57 29.18C47.6 29.29 47.66 29.38 47.75 29.45C47.83 29.53 47.93 29.59 48.04 29.61C48.16 29.62 48.27 29.61 48.37 29.56C48.48 29.51 48.58 29.44 48.67 29.35C48.81 29.22 48.9 29.03 48.91 28.84C48.96 28.84 49 28.83 49.04 28.81C49.2 28.62 49.35 28.42 49.51 28.22L49.12 27.91L48.95 28.11ZM48.51 28.83C48.48 28.9 48.43 28.97 48.37 29.02C48.34 29.06 48.29 29.09 48.24 29.1C48.18 29.1 48.13 29.09 48.09 29.05C48.04 29.02 48.02 28.97 48.01 28.92C48 28.87 48.01 28.81 48.04 28.77C48.07 28.72 48.11 28.68 48.14 28.63C48.21 28.55 48.27 28.47 48.34 28.39C48.35 28.38 48.36 28.37 48.38 28.37C48.61 28.52 48.63 28.59 48.51 28.83L48.51 28.83Z" fill="#FFFFFF" fill-opacity="1.000000" fill-rule="nonzero"/>
		<path id="Vector" d="M25.37 28.05L26.28 29.21C26.44 29.09 26.57 28.95 26.68 28.79C26.77 28.66 26.82 28.51 26.83 28.35C26.83 27.93 26.63 27.62 26.29 27.42C25.61 27.03 24.87 27.53 24.73 28.12C24.7 28.23 24.69 28.34 24.7 28.46C24.76 28.93 25.17 29.38 25.66 29.51L25.82 29.13C25.77 29.1 25.72 29.07 25.68 29.03C25.58 28.95 25.47 28.87 25.38 28.77C25.28 28.68 25.23 28.55 25.22 28.42C25.2 28.35 25.21 28.28 25.24 28.22C25.26 28.15 25.31 28.09 25.37 28.05ZM26.23 27.96C26.37 28.15 26.37 28.31 26.2 28.49L25.69 27.84C25.88 27.72 26.07 27.77 26.23 27.96Z" fill="#FFFFFF" fill-opacity="1.000000" fill-rule="nonzero"/>
		<path id="Vector" d="M34.27 32.46C34.13 32.46 33.99 32.49 33.86 32.55C33.73 32.6 33.62 32.68 33.52 32.78C33.42 32.88 33.35 32.99 33.29 33.12C33.24 33.25 33.22 33.39 33.22 33.53C33.22 34.08 33.62 34.56 34.3 34.57C35.01 34.57 35.34 34 35.34 33.51C35.34 32.93 34.88 32.47 34.27 32.46ZM34.28 34.04C34.21 34.04 34.15 34.03 34.08 34.01C34.02 33.98 33.97 33.95 33.92 33.9C33.87 33.85 33.84 33.8 33.81 33.73C33.79 33.67 33.78 33.61 33.78 33.54C33.78 33.22 33.99 32.98 34.28 32.99C34.35 32.98 34.42 32.99 34.48 33.02C34.54 33.04 34.6 33.08 34.64 33.12C34.69 33.17 34.73 33.23 34.75 33.29C34.77 33.35 34.78 33.42 34.78 33.49C34.77 33.86 34.51 34.06 34.28 34.04L34.28 34.04Z" fill="#FFFFFF" fill-opacity="1.000000" fill-rule="nonzero"/>
		<path id="Vector" d="M29.39 30.55C28.86 30.54 28.34 30.99 28.33 31.63C28.32 32.18 28.84 32.67 29.42 32.67C29.98 32.67 30.46 32.19 30.46 31.61C30.46 31.04 29.98 30.56 29.39 30.55ZM29.37 32.14C29.31 32.14 29.25 32.12 29.19 32.1C29.13 32.07 29.07 32.04 29.03 31.99C28.98 31.94 28.95 31.89 28.92 31.83C28.9 31.77 28.89 31.7 28.89 31.64C28.89 31.34 29.13 31.08 29.41 31.07C29.54 31.07 29.67 31.12 29.76 31.22C29.86 31.31 29.91 31.43 29.91 31.56C29.91 31.86 29.66 32.14 29.37 32.14Z" fill="#FFFFFF" fill-opacity="1.000000" fill-rule="nonzero"/>
		<path id="Vector" d="M28.76 30.17C28.72 30.12 28.68 30.08 28.63 30.04C28.54 29.97 28.48 29.87 28.44 29.77C28.38 29.6 28.27 29.46 28.12 29.35C27.8 29.08 27.44 29.01 27.06 29.17C26.87 29.25 26.71 29.38 26.59 29.54C26.47 29.71 26.41 29.91 26.4 30.11C26.36 30.76 26.99 31.32 27.64 31.22C27.76 31.21 27.87 31.16 27.96 31.08C27.91 31.01 27.87 30.94 27.83 30.88C27.78 30.8 27.73 30.73 27.69 30.67C27.6 30.69 27.5 30.69 27.41 30.7C27.34 30.69 27.27 30.67 27.21 30.64C27.15 30.61 27.1 30.57 27.06 30.52C27.02 30.46 26.98 30.4 26.96 30.34C26.95 30.28 26.94 30.21 26.95 30.14C26.98 29.85 27.27 29.61 27.55 29.65C27.66 29.67 27.77 29.73 27.86 29.81C27.94 29.9 28 30.01 28.01 30.13C28.01 30.18 28.03 30.22 28.06 30.27C28.16 30.37 28.28 30.47 28.4 30.58L28.76 30.17Z" fill="#FFFFFF" fill-opacity="1.000000" fill-rule="nonzero"/>
		<path id="Vector" d="M52.2 13.94C52.14 13.93 52.09 13.9 52.04 13.86C51.95 13.78 51.89 13.67 51.88 13.54C51.87 13.42 51.9 13.3 51.98 13.2C51.99 13.18 52 13.16 52.02 13.14L51.85 12.67C51.62 12.84 51.46 13.04 51.45 13.32C51.43 13.62 51.53 13.93 51.73 14.16C51.91 14.39 52.16 14.46 52.47 14.44C52.42 14.3 52.37 14.18 52.34 14.06C52.33 14.03 52.31 14 52.29 13.98C52.27 13.96 52.24 13.94 52.2 13.94Z" fill="#FFFFFF" fill-opacity="1.000000" fill-rule="nonzero"/>
		<path id="Vector" d="M39.36 20.1C39.17 19.99 38.98 19.9 38.79 19.82C38.69 19.77 38.59 19.75 38.48 19.71C38.48 19.6 38.49 19.5 38.49 19.4C38.5 19.19 38.4 19.09 38.2 19.08C38.07 19.07 37.94 19.06 37.82 19.03C37.26 18.89 36.79 18.58 36.36 18.21C36.29 18.14 36.28 18.09 36.34 17.99C36.46 17.79 36.57 17.58 36.7 17.39C37.17 16.75 37.71 16.15 38.32 15.63C38.7 15.29 39.1 14.97 39.57 14.74C39.6 14.72 39.63 14.69 39.66 14.67C39.87 14.46 40.08 14.26 40.28 14.05C40.32 14.01 40.35 13.97 40.37 13.92C40.4 13.87 40.41 13.81 40.41 13.76C40.41 13.7 40.4 13.65 40.38 13.6C40.36 13.54 40.33 13.5 40.3 13.46C40.07 13.22 39.84 12.98 39.6 12.76C39.51 12.68 39.41 12.64 39.3 12.64C39.18 12.64 39.08 12.68 39 12.76C38.96 12.8 38.93 12.83 38.89 12.87C37.66 14.1 36.43 15.34 35.19 16.57C35.16 16.61 35.13 16.64 35.09 16.66C35.05 16.68 35.01 16.7 34.96 16.7C34.83 16.71 34.71 16.77 34.63 16.86C34.26 17.23 33.9 17.59 33.54 17.95C33.48 18.01 33.44 18.07 33.41 18.14C33.38 18.21 33.36 18.28 33.36 18.36C33.36 18.43 33.38 18.51 33.41 18.58C33.44 18.65 33.48 18.71 33.53 18.76C33.77 19 34.01 19.24 34.24 19.47C34.3 19.54 34.37 19.58 34.45 19.61C34.52 19.64 34.61 19.64 34.69 19.63C34.84 19.61 34.9 19.67 34.96 19.8C34.91 19.82 34.86 19.84 34.8 19.87C34.57 19.96 34.35 20.09 34.15 20.25C34.03 20.35 33.93 20.47 33.86 20.61C33.8 20.75 33.77 20.91 33.77 21.06C33.77 22.7 33.77 24.34 33.77 25.97C33.77 26.03 33.78 26.09 33.79 26.14C33.8 26.19 33.82 26.23 33.86 26.26C33.89 26.29 33.93 26.32 33.98 26.33C34.02 26.34 34.07 26.34 34.12 26.32C34.16 26.31 34.2 26.28 34.23 26.24C34.28 26.18 34.31 26.11 34.3 26.03C34.3 25.78 34.3 25.53 34.3 25.28C34.3 25.24 34.31 25.2 34.31 25.14C34.35 25.15 34.38 25.17 34.41 25.18C34.76 25.36 35.13 25.49 35.52 25.57C35.56 25.58 35.6 25.58 35.64 25.58C35.7 25.58 35.76 25.56 35.81 25.52C35.85 25.49 35.89 25.43 35.9 25.37C35.91 25.31 35.9 25.25 35.87 25.19C35.84 25.14 35.79 25.1 35.73 25.08C35.68 25.06 35.62 25.05 35.56 25.03C35.3 24.95 35.04 24.88 34.79 24.78C34.67 24.72 34.56 24.65 34.46 24.57C34.4 24.53 34.36 24.48 34.33 24.42C34.31 24.36 34.3 24.29 34.3 24.22C34.31 23.98 34.3 23.74 34.3 23.49C34.31 23.45 34.31 23.41 34.32 23.37C34.48 23.45 34.62 23.53 34.77 23.59C35.43 23.87 36.13 23.96 36.84 23.96C36.86 23.96 36.88 23.96 36.9 23.96C36.95 23.95 37 23.93 37.03 23.9C37.07 23.87 37.1 23.83 37.11 23.78C37.13 23.74 37.13 23.69 37.12 23.64C37.11 23.6 37.09 23.56 37.05 23.53C37.03 23.5 36.99 23.47 36.95 23.46C36.92 23.44 36.88 23.44 36.84 23.44C36.58 23.42 36.33 23.41 36.07 23.39C35.69 23.35 35.31 23.25 34.96 23.1C34.78 23.03 34.62 22.93 34.48 22.81C34.43 22.78 34.39 22.74 34.37 22.69C34.34 22.65 34.32 22.6 34.31 22.54C34.3 22.32 34.31 22.09 34.31 21.84C34.44 21.91 34.55 21.97 34.66 22.02C34.78 22.08 34.9 22.12 35.02 22.16C35.13 22.2 35.25 22.24 35.37 22.27C35.49 22.3 35.61 22.33 35.74 22.35C35.86 22.37 35.99 22.39 36.12 22.4C36.24 22.42 36.37 22.43 36.5 22.43C36.62 22.44 36.74 22.44 36.86 22.44C36.99 22.44 37.12 22.44 37.24 22.43C37.37 22.43 37.5 22.42 37.62 22.4C37.75 22.39 37.87 22.37 38 22.34C38.12 22.32 38.25 22.3 38.37 22.27C38.49 22.24 38.61 22.2 38.72 22.16C38.84 22.12 38.96 22.07 39.07 22.02C39.19 21.97 39.3 21.91 39.41 21.85C39.41 21.87 39.42 21.88 39.42 21.9C39.42 22.37 39.42 22.84 39.42 23.3C39.42 23.35 39.41 23.41 39.39 23.45C39.37 23.5 39.35 23.54 39.31 23.58C39.23 23.65 39.15 23.72 39.06 23.78C38.86 23.9 38.65 24 38.42 24.06C38.32 24.09 38.22 24.11 38.13 24.14C38.08 24.15 38.03 24.18 38 24.21C37.96 24.25 37.94 24.3 37.93 24.35C37.93 24.39 37.93 24.44 37.94 24.48C37.96 24.52 37.98 24.56 38.02 24.59C38.05 24.62 38.09 24.64 38.14 24.65C38.18 24.66 38.23 24.66 38.27 24.64C38.63 24.57 38.97 24.44 39.29 24.26C39.33 24.24 39.37 24.22 39.43 24.19L39.43 25.96C39.42 26.01 39.43 26.06 39.43 26.11C39.44 26.17 39.47 26.23 39.52 26.27C39.57 26.31 39.63 26.34 39.69 26.34C39.75 26.34 39.81 26.31 39.86 26.27C39.91 26.23 39.94 26.17 39.94 26.11C39.95 26.05 39.95 26 39.95 25.94L39.95 22.45C39.95 21.97 39.95 21.49 39.95 21.01C39.95 20.89 39.93 20.78 39.89 20.67C39.85 20.56 39.78 20.46 39.7 20.38C39.6 20.27 39.48 20.18 39.36 20.1ZM37.93 19.6C37.94 19.64 37.94 19.68 37.93 19.72C37.86 20.11 37.66 20.48 37.37 20.76C37.34 20.79 37.3 20.81 37.26 20.83C37.22 20.84 37.18 20.85 37.14 20.85C36.82 20.84 36.51 20.85 36.18 20.85C35.98 20.28 35.66 19.75 35.26 19.3L35.98 18.58C36.54 19.06 37.16 19.46 37.93 19.6ZM39.34 13.23C39.46 13.36 39.6 13.49 39.73 13.63C39.76 13.66 39.79 13.7 39.83 13.74C39.8 13.77 39.78 13.8 39.75 13.83C39.52 14.09 39.25 14.31 38.96 14.48C38.55 14.71 38.21 15.02 37.86 15.33C37.29 15.84 36.78 16.4 36.32 17.02C36.22 17.15 36.13 17.29 36.05 17.42C35.89 17.26 35.74 17.11 35.6 16.97L39.34 13.23ZM34.63 19.12C34.38 18.87 34.13 18.62 33.9 18.38C34.29 17.99 34.67 17.62 35.05 17.24C35.31 17.46 35.56 17.7 35.78 17.97C35.72 18.07 34.77 19.03 34.63 19.12L34.63 19.12ZM39.36 21.15C39.29 21.24 39.2 21.33 39.1 21.4C38.85 21.57 38.56 21.69 38.26 21.75C37.21 21.99 36.17 21.99 35.13 21.65C34.92 21.58 34.72 21.48 34.54 21.34C34.23 21.1 34.22 20.87 34.53 20.62C34.75 20.46 35 20.34 35.27 20.27C35.29 20.26 35.3 20.27 35.32 20.27C35.44 20.44 35.53 20.63 35.6 20.83C35.55 20.84 35.51 20.85 35.48 20.86C35.42 20.88 35.37 20.91 35.34 20.96C35.31 21.01 35.29 21.07 35.29 21.13C35.3 21.19 35.33 21.25 35.37 21.29C35.41 21.33 35.47 21.36 35.53 21.37C35.58 21.37 35.62 21.37 35.67 21.37L38.06 21.37C38.11 21.37 38.15 21.37 38.2 21.37C38.26 21.36 38.32 21.33 38.36 21.28C38.41 21.23 38.43 21.17 38.43 21.11C38.43 21.04 38.4 20.98 38.36 20.93C38.32 20.89 38.26 20.86 38.2 20.85C38.14 20.84 38.09 20.84 38.02 20.84L38.35 20.23C38.68 20.33 39 20.44 39.26 20.68C39.3 20.72 39.34 20.76 39.37 20.81C39.4 20.86 39.42 20.92 39.42 20.98C39.42 21.04 39.4 21.1 39.36 21.15L39.36 21.15Z" fill="#FFFFFF" fill-opacity="1.000000" fill-rule="nonzero"/>
		<path id="Vector" d="M40.29 19.01C40.15 19 40.02 19 39.88 19.01C39.82 19.02 39.76 19.05 39.71 19.1C39.67 19.15 39.65 19.21 39.65 19.28C39.65 19.34 39.68 19.41 39.73 19.45C39.78 19.5 39.84 19.53 39.91 19.53C39.97 19.54 40.03 19.53 40.09 19.53C40.15 19.53 40.2 19.54 40.26 19.53C40.32 19.53 40.39 19.51 40.44 19.46C40.48 19.41 40.51 19.35 40.52 19.29C40.52 19.22 40.5 19.15 40.46 19.1C40.42 19.05 40.35 19.02 40.29 19.01Z" fill="#FFFFFF" fill-opacity="1.000000" fill-rule="nonzero"/>
		<path id="Vector" d="M38.32 17.06C38.25 17.05 38.19 17.07 38.14 17.11C38.09 17.16 38.05 17.22 38.05 17.29C38.03 17.42 38.03 17.55 38.05 17.68C38.05 17.71 38.06 17.75 38.07 17.78C38.09 17.81 38.11 17.84 38.14 17.86C38.16 17.88 38.19 17.9 38.23 17.91C38.26 17.92 38.29 17.92 38.33 17.92C38.39 17.91 38.46 17.88 38.5 17.83C38.55 17.78 38.57 17.72 38.57 17.65C38.57 17.6 38.57 17.54 38.57 17.48C38.57 17.43 38.57 17.37 38.57 17.32C38.57 17.25 38.54 17.19 38.5 17.14C38.45 17.09 38.39 17.06 38.32 17.06Z" fill="#FFFFFF" fill-opacity="1.000000" fill-rule="nonzero"/>
		<path id="Vector" d="M39.67 17.62C39.64 17.63 39.61 17.64 39.58 17.65C39.45 17.76 39.33 17.89 39.22 18.02C39.14 18.1 39.18 18.24 39.27 18.32C39.31 18.36 39.36 18.39 39.42 18.39C39.48 18.4 39.54 18.38 39.59 18.35C39.7 18.25 39.8 18.15 39.9 18.04C39.93 18 39.95 17.95 39.95 17.9C39.96 17.85 39.94 17.81 39.92 17.77C39.89 17.72 39.86 17.68 39.81 17.66C39.77 17.63 39.72 17.62 39.67 17.62Z" fill="#FFFFFF" fill-opacity="1.000000" fill-rule="nonzero"/>
		<path id="Vector" d="M46.31 19.35C46.29 19.35 46.27 19.36 46.25 19.36C46.23 19.37 46.22 19.38 46.21 19.4C46.19 19.41 46.19 19.43 46.18 19.45C46.17 19.46 46.17 19.48 46.18 19.5C46.18 19.52 46.18 19.54 46.19 19.55C46.19 19.57 46.2 19.59 46.22 19.6C46.23 19.61 46.24 19.62 46.26 19.62C46.28 19.63 46.3 19.63 46.31 19.63C46.33 19.63 46.35 19.63 46.36 19.62C46.38 19.61 46.39 19.6 46.41 19.59C46.42 19.57 46.43 19.56 46.43 19.54C46.44 19.52 46.44 19.51 46.44 19.49C46.44 19.47 46.44 19.45 46.43 19.44C46.42 19.42 46.41 19.41 46.4 19.39C46.39 19.38 46.37 19.37 46.36 19.36C46.34 19.36 46.33 19.35 46.31 19.35Z" fill="#FFFFFF" fill-opacity="1.000000" fill-rule="nonzero"/>
		<path id="Vector" d="M27.68 18.22C27.72 18.22 27.75 18.21 27.78 18.18C27.8 18.16 27.82 18.12 27.82 18.09C27.82 18.06 27.8 18.03 27.78 18C27.76 17.98 27.73 17.96 27.69 17.96C27.68 17.96 27.66 17.96 27.64 17.97C27.63 17.98 27.61 17.99 27.6 18C27.59 18.01 27.58 18.03 27.57 18.04C27.56 18.06 27.56 18.08 27.56 18.09C27.56 18.13 27.57 18.16 27.6 18.18C27.62 18.2 27.65 18.22 27.68 18.22Z" fill="#FFFFFF" fill-opacity="1.000000" fill-rule="nonzero"/>
		<path id="Vector" d="M30.73 26.38C30.69 26.38 30.66 26.39 30.63 26.41C30.61 26.44 30.59 26.47 30.59 26.51C30.59 26.54 30.61 26.57 30.63 26.59C30.65 26.62 30.68 26.63 30.71 26.64C30.75 26.63 30.78 26.62 30.81 26.6C30.83 26.57 30.85 26.54 30.85 26.5C30.85 26.47 30.83 26.44 30.81 26.41C30.79 26.39 30.76 26.38 30.73 26.38Z" fill="#FFFFFF" fill-opacity="1.000000" fill-rule="nonzero"/>
		<path id="Vector" d="M27.82 20.95C27.82 20.91 27.81 20.88 27.78 20.85C27.76 20.83 27.72 20.82 27.69 20.82C27.65 20.82 27.62 20.84 27.6 20.86C27.57 20.89 27.56 20.92 27.56 20.95C27.56 20.97 27.57 20.99 27.57 21C27.58 21.02 27.59 21.03 27.6 21.04C27.61 21.06 27.63 21.07 27.65 21.07C27.66 21.08 27.68 21.08 27.7 21.08C27.71 21.08 27.73 21.08 27.74 21.07C27.76 21.06 27.77 21.05 27.79 21.04C27.8 21.03 27.81 21.01 27.81 21C27.82 20.98 27.82 20.96 27.82 20.95Z" fill="#FFFFFF" fill-opacity="1.000000" fill-rule="nonzero"/>
		<path id="Vector" d="M43.69 25.87C43.65 25.87 43.62 25.89 43.6 25.91C43.57 25.94 43.56 25.97 43.56 26.01C43.56 26.04 43.58 26.07 43.6 26.09C43.62 26.11 43.66 26.13 43.69 26.13C43.72 26.13 43.75 26.12 43.78 26.09C43.8 26.07 43.82 26.04 43.82 26.01C43.82 25.97 43.81 25.94 43.78 25.91C43.76 25.89 43.72 25.87 43.69 25.87Z" fill="#FFFFFF" fill-opacity="1.000000" fill-rule="nonzero"/>
		<path id="Vector" d="M44.17 25.34C44.14 25.34 44.11 25.35 44.08 25.37C44.06 25.39 44.04 25.42 44.04 25.45C44.04 25.49 44.05 25.52 44.07 25.55C44.1 25.58 44.13 25.59 44.16 25.6C44.2 25.59 44.23 25.58 44.25 25.56C44.28 25.54 44.29 25.51 44.3 25.48C44.3 25.44 44.29 25.41 44.26 25.38C44.24 25.35 44.21 25.34 44.17 25.34Z" fill="#FFFFFF" fill-opacity="1.000000" fill-rule="nonzero"/>
		<path id="Vector" d="M31.84 11.78C31.88 11.78 31.91 11.77 31.93 11.74C31.95 11.72 31.97 11.69 31.97 11.66C31.97 11.62 31.96 11.59 31.93 11.56C31.91 11.54 31.87 11.52 31.84 11.52C31.81 11.52 31.77 11.54 31.75 11.56C31.73 11.58 31.71 11.62 31.71 11.65C31.71 11.67 31.71 11.68 31.72 11.7C31.73 11.72 31.74 11.73 31.75 11.74C31.76 11.76 31.78 11.77 31.79 11.77C31.81 11.78 31.83 11.78 31.84 11.78Z" fill="#FFFFFF" fill-opacity="1.000000" fill-rule="nonzero"/>
		<path id="Vector" d="M33.11 27.93C33.08 27.93 33.05 27.95 33.02 27.97C33 28 32.99 28.03 32.99 28.06C32.99 28.1 33.01 28.13 33.03 28.15C33.05 28.17 33.08 28.19 33.12 28.19C33.15 28.19 33.18 28.17 33.21 28.15C33.23 28.12 33.25 28.09 33.25 28.05C33.25 28.02 33.23 27.99 33.2 27.96C33.18 27.94 33.14 27.93 33.11 27.93Z" fill="#FFFFFF" fill-opacity="1.000000" fill-rule="nonzero"/>
		<path id="Vector" d="M41.41 27.6C41.38 27.61 41.35 27.62 41.33 27.64C41.3 27.67 41.29 27.7 41.29 27.73C41.29 27.76 41.3 27.8 41.32 27.82C41.35 27.85 41.38 27.86 41.41 27.86C41.44 27.86 41.48 27.85 41.51 27.83C41.53 27.8 41.55 27.77 41.55 27.74C41.55 27.7 41.53 27.67 41.51 27.64C41.48 27.62 41.45 27.6 41.41 27.6Z" fill="#FFFFFF" fill-opacity="1.000000" fill-rule="nonzero"/>
		<path id="Vector" d="M35.18 28.58C35.14 28.57 35.11 28.58 35.09 28.6C35.06 28.63 35.04 28.66 35.04 28.69C35.04 28.71 35.04 28.74 35.05 28.76C35.06 28.79 35.08 28.81 35.11 28.82C35.13 28.83 35.15 28.84 35.18 28.83C35.21 28.83 35.23 28.82 35.25 28.81C35.27 28.79 35.29 28.77 35.29 28.74C35.3 28.72 35.3 28.69 35.29 28.66C35.28 28.64 35.27 28.62 35.25 28.6C35.23 28.59 35.2 28.58 35.18 28.58Z" fill="#FFFFFF" fill-opacity="1.000000" fill-rule="nonzero"/>
		<path id="Vector" d="M33.76 10.83C33.79 10.82 33.82 10.81 33.85 10.79C33.87 10.76 33.89 10.73 33.89 10.7C33.89 10.67 33.88 10.63 33.85 10.61C33.83 10.58 33.79 10.57 33.76 10.57C33.74 10.57 33.72 10.57 33.71 10.58C33.69 10.59 33.68 10.6 33.67 10.61C33.65 10.62 33.64 10.64 33.64 10.65C33.63 10.67 33.63 10.69 33.63 10.71C33.64 10.74 33.65 10.77 33.67 10.79C33.7 10.81 33.73 10.83 33.76 10.83Z" fill="#FFFFFF" fill-opacity="1.000000" fill-rule="nonzero"/>
		<path id="Vector" d="M37.28 10.28C37.31 10.28 37.34 10.26 37.37 10.24C37.39 10.21 37.41 10.18 37.41 10.14C37.41 10.13 37.4 10.11 37.4 10.09C37.39 10.08 37.38 10.06 37.37 10.05C37.35 10.04 37.34 10.03 37.32 10.03C37.3 10.02 37.29 10.02 37.27 10.02C37.24 10.02 37.21 10.04 37.19 10.06C37.16 10.09 37.15 10.12 37.15 10.15C37.15 10.18 37.17 10.21 37.19 10.24C37.21 10.26 37.24 10.27 37.28 10.28Z" fill="#FFFFFF" fill-opacity="1.000000" fill-rule="nonzero"/>
		<path id="Vector" d="M28.56 23.54C28.53 23.54 28.49 23.56 28.47 23.58C28.44 23.6 28.42 23.64 28.42 23.67C28.42 23.71 28.44 23.74 28.46 23.76C28.48 23.78 28.51 23.8 28.55 23.8C28.58 23.8 28.62 23.79 28.64 23.77C28.67 23.75 28.68 23.71 28.68 23.68C28.68 23.65 28.67 23.61 28.65 23.59C28.63 23.56 28.6 23.55 28.56 23.54Z" fill="#FFFFFF" fill-opacity="1.000000" fill-rule="nonzero"/>
		<path id="Vector" d="M37.31 28.73C37.28 28.74 37.25 28.75 37.22 28.77C37.2 28.79 37.18 28.82 37.18 28.86C37.18 28.89 37.19 28.93 37.22 28.95C37.24 28.98 37.27 28.99 37.31 28.99C37.34 28.99 37.37 28.98 37.4 28.96C37.42 28.94 37.44 28.91 37.44 28.87C37.44 28.84 37.43 28.8 37.4 28.78C37.38 28.75 37.34 28.74 37.31 28.73Z" fill="#FFFFFF" fill-opacity="1.000000" fill-rule="nonzero"/>
		<path id="Vector" d="M38.71 10.44C38.74 10.43 38.78 10.42 38.8 10.4C38.82 10.37 38.83 10.34 38.84 10.31C38.84 10.27 38.82 10.24 38.8 10.21C38.77 10.19 38.74 10.18 38.7 10.18C38.67 10.18 38.64 10.19 38.61 10.22C38.59 10.24 38.58 10.27 38.58 10.31C38.58 10.32 38.58 10.34 38.59 10.36C38.59 10.37 38.6 10.39 38.62 10.4C38.63 10.41 38.64 10.42 38.66 10.43C38.68 10.43 38.69 10.44 38.71 10.44Z" fill="#FFFFFF" fill-opacity="1.000000" fill-rule="nonzero"/>
		<path id="Vector" d="M45.64 22.87C45.6 22.88 45.57 22.89 45.54 22.92C45.52 22.94 45.5 22.97 45.5 23.01C45.5 23.04 45.52 23.07 45.54 23.1C45.56 23.12 45.59 23.13 45.63 23.14C45.66 23.14 45.7 23.12 45.72 23.1C45.75 23.07 45.76 23.04 45.76 23C45.76 22.97 45.74 22.94 45.72 22.92C45.7 22.89 45.67 22.88 45.64 22.87Z" fill="#FFFFFF" fill-opacity="1.000000" fill-rule="nonzero"/>
		<path id="Vector" d="M46.15 18.76C46.15 18.8 46.16 18.83 46.18 18.85C46.21 18.87 46.24 18.89 46.27 18.89C46.31 18.89 46.34 18.88 46.37 18.85C46.39 18.83 46.41 18.8 46.41 18.76C46.41 18.73 46.39 18.7 46.37 18.67C46.35 18.65 46.32 18.63 46.28 18.63C46.25 18.63 46.22 18.65 46.19 18.67C46.16 18.69 46.15 18.73 46.15 18.76Z" fill="#FFFFFF" fill-opacity="1.000000" fill-rule="nonzero"/>
		<path id="Vector" d="M42.06 27.24C42.02 27.23 41.99 27.24 41.96 27.26C41.93 27.28 41.91 27.31 41.91 27.35C41.9 27.38 41.91 27.41 41.93 27.44C41.95 27.47 41.98 27.49 42.01 27.5C42.05 27.5 42.08 27.49 42.11 27.47C42.14 27.45 42.16 27.42 42.16 27.39C42.17 27.35 42.16 27.32 42.14 27.29C42.12 27.26 42.09 27.24 42.06 27.24Z" fill="#FFFFFF" fill-opacity="1.000000" fill-rule="nonzero"/>
		<path id="Vector" d="M46.28 20.09C46.25 20.09 46.22 20.11 46.19 20.13C46.17 20.15 46.15 20.18 46.15 20.22C46.15 20.24 46.15 20.27 46.17 20.29C46.18 20.31 46.2 20.33 46.22 20.34C46.25 20.35 46.27 20.35 46.3 20.35C46.33 20.35 46.35 20.33 46.37 20.32C46.39 20.3 46.4 20.28 46.41 20.25C46.41 20.23 46.41 20.2 46.4 20.17C46.39 20.15 46.37 20.13 46.35 20.11C46.33 20.1 46.31 20.09 46.28 20.09Z" fill="#FFFFFF" fill-opacity="1.000000" fill-rule="nonzero"/>
		<path id="Vector" d="M44.6 24.76C44.57 24.76 44.54 24.78 44.51 24.8C44.49 24.83 44.47 24.86 44.47 24.89C44.47 24.93 44.48 24.96 44.51 24.99C44.53 25.01 44.57 25.02 44.6 25.02C44.63 25.02 44.67 25.01 44.69 24.99C44.71 24.97 44.73 24.94 44.73 24.9C44.73 24.87 44.72 24.83 44.7 24.81C44.67 24.78 44.64 24.77 44.6 24.76Z" fill="#FFFFFF" fill-opacity="1.000000" fill-rule="nonzero"/>
		<path id="Vector" d="M32.48 27.61C32.45 27.61 32.41 27.62 32.39 27.65C32.37 27.67 32.35 27.7 32.35 27.74C32.35 27.77 32.36 27.8 32.38 27.83C32.41 27.85 32.44 27.87 32.47 27.87C32.49 27.87 32.51 27.86 32.52 27.86C32.54 27.85 32.56 27.84 32.57 27.83C32.58 27.82 32.59 27.8 32.6 27.79C32.61 27.77 32.61 27.75 32.61 27.73C32.61 27.7 32.59 27.67 32.57 27.65C32.54 27.63 32.51 27.61 32.48 27.61Z" fill="#FFFFFF" fill-opacity="1.000000" fill-rule="nonzero"/>
		<path id="Vector" d="M40.11 28.19C40.08 28.19 40.05 28.21 40.03 28.23C40 28.25 39.99 28.28 39.98 28.31C39.98 28.35 39.99 28.38 40.02 28.4C40.04 28.43 40.07 28.44 40.11 28.45C40.14 28.45 40.17 28.44 40.2 28.42C40.22 28.39 40.24 28.36 40.24 28.33C40.24 28.29 40.23 28.26 40.21 28.23C40.18 28.21 40.15 28.19 40.11 28.19Z" fill="#FFFFFF" fill-opacity="1.000000" fill-rule="nonzero"/>
		<path id="Vector" d="M38.73 28.57C38.72 28.57 38.7 28.58 38.68 28.58C38.67 28.59 38.65 28.6 38.64 28.61C38.63 28.62 38.62 28.64 38.61 28.66C38.61 28.67 38.6 28.69 38.6 28.71C38.61 28.74 38.62 28.77 38.64 28.79C38.67 28.82 38.7 28.83 38.73 28.83C38.77 28.83 38.8 28.82 38.82 28.79C38.85 28.76 38.86 28.73 38.86 28.7C38.86 28.66 38.85 28.63 38.82 28.61C38.8 28.59 38.77 28.57 38.73 28.57Z" fill="#FFFFFF" fill-opacity="1.000000" fill-rule="nonzero"/>
		<path id="Vector" d="M35.14 10.44C35.18 10.44 35.21 10.43 35.23 10.41C35.25 10.38 35.27 10.35 35.27 10.32C35.27 10.28 35.26 10.25 35.23 10.22C35.21 10.2 35.18 10.18 35.14 10.18C35.11 10.18 35.08 10.2 35.05 10.22C35.03 10.24 35.01 10.27 35.01 10.31C35.01 10.32 35.01 10.34 35.02 10.36C35.03 10.37 35.04 10.39 35.05 10.4C35.06 10.41 35.08 10.42 35.09 10.43C35.11 10.44 35.13 10.44 35.14 10.44Z" fill="#FFFFFF" fill-opacity="1.000000" fill-rule="nonzero"/>
		<path id="Vector" d="M40.75 11.08C40.79 11.08 40.82 11.06 40.85 11.04C40.87 11.01 40.88 10.98 40.88 10.94C40.88 10.93 40.88 10.91 40.87 10.89C40.87 10.88 40.86 10.86 40.84 10.85C40.83 10.84 40.82 10.83 40.8 10.82C40.78 10.82 40.77 10.82 40.75 10.82C40.73 10.82 40.71 10.82 40.7 10.83C40.68 10.84 40.67 10.85 40.66 10.86C40.65 10.87 40.64 10.89 40.63 10.9C40.63 10.92 40.62 10.94 40.62 10.96C40.63 10.99 40.64 11.02 40.67 11.04C40.69 11.06 40.72 11.08 40.75 11.08Z" fill="#FFFFFF" fill-opacity="1.000000" fill-rule="nonzero"/>
		<path id="Vector" d="M32.44 11.41C32.46 11.42 32.48 11.41 32.49 11.41C32.51 11.4 32.53 11.39 32.54 11.38C32.55 11.37 32.56 11.36 32.57 11.34C32.58 11.33 32.58 11.31 32.58 11.29C32.59 11.27 32.58 11.26 32.58 11.24C32.57 11.23 32.56 11.21 32.55 11.2C32.54 11.18 32.53 11.17 32.51 11.17C32.49 11.16 32.48 11.16 32.46 11.16C32.44 11.15 32.43 11.16 32.41 11.16C32.39 11.17 32.38 11.18 32.37 11.19C32.35 11.2 32.34 11.21 32.34 11.23C32.33 11.25 32.33 11.26 32.33 11.28C32.32 11.31 32.34 11.34 32.36 11.37C32.38 11.39 32.41 11.41 32.44 11.41Z" fill="#FFFFFF" fill-opacity="1.000000" fill-rule="nonzero"/>
		<path id="Vector" d="M31.26 12.2C31.29 12.2 31.32 12.18 31.34 12.16C31.37 12.14 31.38 12.11 31.39 12.07C31.39 12.04 31.37 12.01 31.35 11.98C31.32 11.96 31.29 11.94 31.25 11.94C31.22 11.94 31.19 11.95 31.17 11.98C31.14 12 31.13 12.03 31.13 12.06C31.13 12.08 31.13 12.1 31.14 12.11C31.14 12.13 31.15 12.14 31.16 12.16C31.18 12.17 31.19 12.18 31.21 12.19C31.22 12.19 31.24 12.2 31.26 12.2Z" fill="#FFFFFF" fill-opacity="1.000000" fill-rule="nonzero"/>
		<path id="Vector" d="M28.89 14.86C28.92 14.86 28.95 14.85 28.98 14.82C29 14.8 29.01 14.77 29.02 14.73C29.02 14.7 29 14.67 28.98 14.64C28.96 14.62 28.92 14.6 28.89 14.6C28.85 14.6 28.82 14.61 28.8 14.64C28.77 14.66 28.76 14.7 28.76 14.73C28.76 14.77 28.77 14.8 28.79 14.82C28.82 14.85 28.85 14.86 28.89 14.86Z" fill="#FFFFFF" fill-opacity="1.000000" fill-rule="nonzero"/>
		<path id="Vector" d="M28.54 15.49C28.58 15.49 28.61 15.48 28.63 15.45C28.66 15.43 28.67 15.4 28.68 15.36C28.68 15.33 28.66 15.3 28.64 15.27C28.61 15.25 28.58 15.24 28.54 15.24C28.51 15.24 28.48 15.25 28.45 15.28C28.43 15.3 28.42 15.33 28.42 15.37C28.42 15.4 28.43 15.43 28.45 15.45C28.48 15.48 28.51 15.49 28.54 15.49Z" fill="#FFFFFF" fill-opacity="1.000000" fill-rule="nonzero"/>
		<path id="Vector" d="M28.25 16.15C28.29 16.15 28.32 16.13 28.34 16.11C28.36 16.09 28.38 16.06 28.38 16.02C28.38 15.99 28.37 15.95 28.34 15.93C28.32 15.9 28.28 15.89 28.25 15.89C28.22 15.89 28.19 15.91 28.16 15.93C28.14 15.95 28.12 15.98 28.12 16.01C28.12 16.05 28.13 16.08 28.16 16.11C28.18 16.13 28.22 16.15 28.25 16.15Z" fill="#FFFFFF" fill-opacity="1.000000" fill-rule="nonzero"/>
		<path id="Vector" d="M27.81 17.52C27.83 17.52 27.84 17.52 27.86 17.51C27.88 17.51 27.89 17.5 27.9 17.48C27.92 17.47 27.93 17.46 27.94 17.44C27.94 17.43 27.95 17.41 27.95 17.39C27.95 17.38 27.95 17.36 27.94 17.34C27.93 17.32 27.92 17.31 27.91 17.3C27.9 17.28 27.89 17.27 27.87 17.27C27.85 17.26 27.84 17.26 27.82 17.26C27.79 17.26 27.76 17.27 27.73 17.3C27.71 17.32 27.69 17.35 27.69 17.38C27.69 17.41 27.7 17.45 27.72 17.47C27.75 17.5 27.78 17.51 27.81 17.52Z" fill="#FFFFFF" fill-opacity="1.000000" fill-rule="nonzero"/>
		<path id="Vector" d="M46.06 18.05C46.06 18.08 46.08 18.12 46.1 18.14C46.13 18.16 46.16 18.18 46.2 18.18C46.23 18.18 46.27 18.16 46.29 18.13C46.31 18.11 46.32 18.07 46.32 18.04C46.32 18.01 46.3 17.98 46.28 17.95C46.25 17.93 46.22 17.92 46.19 17.92C46.16 17.92 46.13 17.94 46.1 17.96C46.08 17.98 46.06 18.01 46.06 18.05Z" fill="#FFFFFF" fill-opacity="1.000000" fill-rule="nonzero"/>
		<path id="Vector" d="M45.93 17.35C45.93 17.36 45.93 17.38 45.94 17.4C45.95 17.41 45.96 17.43 45.97 17.44C45.98 17.45 46 17.46 46.01 17.47C46.03 17.47 46.05 17.48 46.07 17.48C46.1 17.47 46.13 17.46 46.15 17.43C46.17 17.41 46.18 17.37 46.18 17.34C46.18 17.31 46.17 17.28 46.14 17.25C46.12 17.23 46.09 17.22 46.05 17.22C46.04 17.22 46.02 17.22 46 17.23C45.99 17.23 45.97 17.24 45.96 17.26C45.95 17.27 45.94 17.28 45.94 17.3C45.93 17.31 45.93 17.33 45.93 17.35Z" fill="#FFFFFF" fill-opacity="1.000000" fill-rule="nonzero"/>
		<path id="Vector" d="M45 24.16C44.97 24.16 44.93 24.17 44.91 24.2C44.88 24.22 44.87 24.25 44.86 24.28C44.86 24.3 44.87 24.32 44.87 24.33C44.88 24.35 44.89 24.36 44.9 24.38C44.91 24.39 44.92 24.4 44.94 24.41C44.95 24.42 44.97 24.42 44.99 24.42C45.01 24.42 45.02 24.42 45.04 24.41C45.06 24.41 45.07 24.4 45.08 24.39C45.1 24.37 45.11 24.36 45.11 24.34C45.12 24.33 45.12 24.31 45.12 24.29C45.12 24.26 45.11 24.23 45.09 24.21C45.06 24.18 45.03 24.17 45 24.16Z" fill="#FFFFFF" fill-opacity="1.000000" fill-rule="nonzero"/>
		<path id="Vector" d="M33.1 11.09C33.12 11.09 33.15 11.08 33.17 11.07C33.19 11.05 33.2 11.03 33.21 11.01C33.22 10.99 33.22 10.96 33.22 10.94C33.21 10.92 33.2 10.89 33.18 10.88C33.17 10.86 33.14 10.85 33.12 10.84C33.1 10.84 33.07 10.84 33.05 10.85C33.03 10.86 33.01 10.87 32.99 10.89C32.98 10.91 32.97 10.93 32.97 10.96C32.97 10.98 32.97 10.99 32.98 11.01C32.98 11.03 32.99 11.04 33 11.05C33.02 11.07 33.03 11.08 33.05 11.08C33.06 11.09 33.08 11.09 33.1 11.09Z" fill="#FFFFFF" fill-opacity="1.000000" fill-rule="nonzero"/>
		<path id="Vector" d="M44.99 14.83C45.02 14.83 45.05 14.81 45.07 14.79C45.1 14.76 45.11 14.73 45.11 14.7C45.11 14.66 45.09 14.63 45.07 14.61C45.05 14.58 45.01 14.57 44.98 14.57C44.96 14.57 44.95 14.57 44.93 14.58C44.92 14.59 44.9 14.6 44.89 14.61C44.88 14.62 44.87 14.64 44.86 14.65C44.86 14.67 44.85 14.69 44.85 14.7C44.85 14.72 44.86 14.74 44.87 14.75C44.87 14.77 44.88 14.78 44.89 14.79C44.91 14.81 44.92 14.81 44.94 14.82C44.95 14.83 44.97 14.83 44.99 14.83Z" fill="#FFFFFF" fill-opacity="1.000000" fill-rule="nonzero"/>
		<path id="Vector" d="M29.28 14.26C29.31 14.26 29.34 14.24 29.37 14.22C29.39 14.2 29.41 14.16 29.41 14.13C29.41 14.11 29.4 14.1 29.39 14.08C29.39 14.06 29.38 14.05 29.36 14.04C29.35 14.03 29.33 14.02 29.32 14.01C29.3 14 29.28 14 29.27 14C29.23 14 29.2 14.02 29.18 14.05C29.16 14.07 29.15 14.1 29.15 14.14C29.15 14.17 29.16 14.2 29.19 14.22C29.21 14.25 29.25 14.26 29.28 14.26Z" fill="#FFFFFF" fill-opacity="1.000000" fill-rule="nonzero"/>
		<path id="Vector" d="M30.18 13.15C30.22 13.15 30.25 13.14 30.27 13.12C30.3 13.1 30.31 13.07 30.32 13.03C30.32 13 30.31 12.97 30.28 12.94C30.26 12.91 30.23 12.9 30.19 12.89C30.16 12.89 30.12 12.91 30.1 12.93C30.07 12.95 30.06 12.98 30.06 13.02C30.06 13.05 30.07 13.09 30.09 13.11C30.12 13.14 30.15 13.15 30.18 13.15Z" fill="#FFFFFF" fill-opacity="1.000000" fill-rule="nonzero"/>
		<path id="Vector" d="M29.73 25.34C29.71 25.34 29.7 25.35 29.68 25.35C29.66 25.36 29.65 25.37 29.64 25.38C29.63 25.39 29.62 25.41 29.61 25.43C29.6 25.44 29.6 25.46 29.6 25.48C29.6 25.51 29.62 25.54 29.64 25.57C29.66 25.59 29.7 25.6 29.73 25.6C29.76 25.6 29.79 25.59 29.82 25.56C29.84 25.54 29.85 25.51 29.86 25.47C29.85 25.44 29.84 25.41 29.82 25.39C29.8 25.36 29.77 25.35 29.73 25.34Z" fill="#FFFFFF" fill-opacity="1.000000" fill-rule="nonzero"/>
		<path id="Vector" d="M42.6 12.17C42.61 12.17 42.63 12.17 42.65 12.17C42.66 12.16 42.68 12.15 42.69 12.14C42.7 12.13 42.71 12.11 42.72 12.1C42.73 12.08 42.73 12.07 42.73 12.05C42.73 12.03 42.73 12.01 42.72 12C42.72 11.98 42.71 11.97 42.69 11.95C42.68 11.94 42.67 11.93 42.65 11.92C42.64 11.92 42.62 11.91 42.6 11.91C42.57 11.92 42.54 11.93 42.51 11.95C42.49 11.98 42.48 12.01 42.48 12.04C42.47 12.07 42.49 12.11 42.51 12.13C42.53 12.16 42.56 12.17 42.6 12.17Z" fill="#FFFFFF" fill-opacity="1.000000" fill-rule="nonzero"/>
		<path id="Vector" d="M31.28 26.83C31.26 26.83 31.25 26.83 31.23 26.84C31.21 26.85 31.2 26.86 31.18 26.87C31.17 26.88 31.16 26.9 31.15 26.91C31.15 26.93 31.14 26.95 31.14 26.96C31.15 27 31.16 27.03 31.18 27.05C31.21 27.07 31.24 27.09 31.27 27.09C31.31 27.09 31.34 27.08 31.36 27.05C31.38 27.03 31.4 27 31.4 26.96C31.4 26.93 31.39 26.9 31.37 26.87C31.35 26.85 31.31 26.83 31.28 26.83Z" fill="#FFFFFF" fill-opacity="1.000000" fill-rule="nonzero"/>
		<path id="Vector" d="M41.41 11.39C41.44 11.39 41.47 11.38 41.49 11.35C41.52 11.33 41.53 11.29 41.53 11.26C41.53 11.23 41.51 11.2 41.49 11.17C41.46 11.15 41.43 11.14 41.4 11.14C41.36 11.14 41.33 11.15 41.31 11.18C41.28 11.2 41.27 11.23 41.27 11.27C41.27 11.28 41.27 11.3 41.28 11.32C41.29 11.33 41.3 11.35 41.31 11.36C41.32 11.37 41.34 11.38 41.36 11.39C41.37 11.39 41.39 11.39 41.41 11.39Z" fill="#FFFFFF" fill-opacity="1.000000" fill-rule="nonzero"/>
		<path id="Vector" d="M34.48 28.42C34.44 28.41 34.41 28.42 34.39 28.45C34.36 28.47 34.34 28.5 34.34 28.53C34.34 28.57 34.35 28.6 34.37 28.63C34.4 28.65 34.43 28.67 34.47 28.67C34.5 28.67 34.53 28.66 34.56 28.63C34.58 28.61 34.6 28.58 34.6 28.55C34.6 28.51 34.59 28.48 34.56 28.46C34.54 28.43 34.51 28.42 34.48 28.42Z" fill="#FFFFFF" fill-opacity="1.000000" fill-rule="nonzero"/>
		<path id="Vector" d="M27.58 19.65C27.61 19.65 27.64 19.64 27.67 19.61C27.69 19.59 27.71 19.56 27.71 19.53C27.71 19.49 27.7 19.46 27.67 19.43C27.65 19.41 27.62 19.39 27.59 19.39C27.55 19.39 27.52 19.4 27.5 19.42C27.47 19.44 27.46 19.47 27.45 19.51C27.45 19.54 27.46 19.58 27.49 19.6C27.51 19.63 27.54 19.65 27.58 19.65Z" fill="#FFFFFF" fill-opacity="1.000000" fill-rule="nonzero"/>
		<path id="Vector" d="M39.41 10.6C39.44 10.59 39.48 10.58 39.5 10.55C39.52 10.53 39.53 10.5 39.54 10.46C39.53 10.43 39.52 10.4 39.49 10.38C39.47 10.35 39.44 10.34 39.4 10.34C39.39 10.34 39.37 10.34 39.35 10.35C39.34 10.36 39.32 10.37 39.31 10.38C39.3 10.39 39.29 10.41 39.28 10.43C39.28 10.44 39.28 10.46 39.28 10.48C39.28 10.51 39.29 10.54 39.32 10.56C39.34 10.59 39.38 10.6 39.41 10.6Z" fill="#FFFFFF" fill-opacity="1.000000" fill-rule="nonzero"/>
		<path id="Vector" d="M35.86 10.33C35.89 10.33 35.92 10.32 35.94 10.29C35.97 10.27 35.98 10.23 35.98 10.2C35.98 10.17 35.96 10.13 35.94 10.11C35.91 10.09 35.88 10.08 35.85 10.08C35.81 10.08 35.78 10.09 35.76 10.12C35.73 10.14 35.72 10.17 35.72 10.2C35.72 10.24 35.74 10.27 35.76 10.3C35.79 10.32 35.82 10.33 35.86 10.33Z" fill="#FFFFFF" fill-opacity="1.000000" fill-rule="nonzero"/>
		<path id="Vector" d="M36.57 10.28C36.6 10.28 36.63 10.26 36.65 10.24C36.68 10.22 36.69 10.19 36.69 10.15C36.69 10.12 36.68 10.08 36.66 10.06C36.63 10.03 36.6 10.02 36.56 10.02C36.53 10.02 36.5 10.03 36.47 10.06C36.45 10.08 36.44 10.11 36.44 10.14C36.44 10.16 36.44 10.18 36.44 10.19C36.45 10.21 36.46 10.23 36.47 10.24C36.48 10.25 36.5 10.26 36.52 10.27C36.53 10.28 36.55 10.28 36.57 10.28Z" fill="#FFFFFF" fill-opacity="1.000000" fill-rule="nonzero"/>
		<path id="Vector" d="M45.87 16.79C45.9 16.78 45.93 16.77 45.96 16.74C45.98 16.72 45.99 16.69 45.99 16.65C45.99 16.62 45.98 16.59 45.95 16.56C45.93 16.54 45.9 16.53 45.87 16.52C45.85 16.53 45.83 16.53 45.81 16.54C45.8 16.54 45.78 16.56 45.77 16.57C45.76 16.58 45.75 16.6 45.75 16.61C45.74 16.63 45.74 16.65 45.74 16.67C45.74 16.7 45.76 16.73 45.78 16.75C45.8 16.77 45.84 16.79 45.87 16.79Z" fill="#FFFFFF" fill-opacity="1.000000" fill-rule="nonzero"/>
		<path id="Vector" d="M45.87 22.2C45.84 22.2 45.81 22.22 45.78 22.24C45.76 22.26 45.75 22.29 45.74 22.33C45.74 22.36 45.75 22.39 45.78 22.42C45.8 22.44 45.83 22.46 45.86 22.46C45.89 22.46 45.93 22.45 45.96 22.43C45.98 22.41 46 22.37 46 22.34C46 22.3 45.99 22.27 45.96 22.24C45.94 22.22 45.91 22.2 45.87 22.2Z" fill="#FFFFFF" fill-opacity="1.000000" fill-rule="nonzero"/>
		<path id="Vector" d="M45.61 16.11C45.63 16.11 45.64 16.11 45.66 16.1C45.68 16.1 45.69 16.09 45.71 16.07C45.72 16.06 45.73 16.05 45.74 16.03C45.74 16.02 45.75 16 45.75 15.98C45.75 15.95 45.73 15.91 45.71 15.89C45.69 15.87 45.65 15.85 45.62 15.85C45.59 15.85 45.56 15.86 45.53 15.89C45.51 15.91 45.49 15.94 45.49 15.97C45.49 16.01 45.5 16.04 45.52 16.07C45.55 16.09 45.58 16.11 45.61 16.11Z" fill="#FFFFFF" fill-opacity="1.000000" fill-rule="nonzero"/>
		<path id="Vector" d="M43.16 12.63C43.2 12.63 43.23 12.61 43.25 12.58C43.27 12.56 43.28 12.53 43.28 12.49C43.28 12.46 43.27 12.43 43.24 12.41C43.22 12.38 43.19 12.37 43.15 12.37C43.12 12.37 43.09 12.39 43.07 12.41C43.04 12.43 43.03 12.46 43.03 12.5C43.03 12.52 43.03 12.53 43.04 12.55C43.04 12.57 43.05 12.58 43.07 12.59C43.08 12.61 43.1 12.62 43.11 12.62C43.13 12.63 43.15 12.63 43.16 12.63Z" fill="#FFFFFF" fill-opacity="1.000000" fill-rule="nonzero"/>
		<path id="Vector" d="M44.59 14.23C44.62 14.23 44.65 14.21 44.68 14.19C44.7 14.17 44.71 14.14 44.72 14.1C44.72 14.07 44.71 14.04 44.68 14.01C44.66 13.99 44.63 13.97 44.6 13.97C44.57 13.97 44.53 13.98 44.51 14C44.48 14.02 44.47 14.05 44.46 14.09C44.46 14.1 44.46 14.12 44.47 14.14C44.47 14.16 44.48 14.17 44.49 14.18C44.5 14.2 44.52 14.21 44.53 14.22C44.55 14.22 44.57 14.23 44.59 14.23Z" fill="#FFFFFF" fill-opacity="1.000000" fill-rule="nonzero"/>
		<path id="Vector" d="M29.71 13.69C29.73 13.69 29.76 13.68 29.78 13.67C29.8 13.65 29.82 13.63 29.83 13.61C29.83 13.59 29.84 13.56 29.83 13.54C29.83 13.51 29.82 13.49 29.8 13.47C29.78 13.45 29.76 13.44 29.73 13.44C29.71 13.43 29.68 13.43 29.66 13.44C29.64 13.45 29.62 13.47 29.6 13.49C29.59 13.51 29.58 13.53 29.58 13.56C29.58 13.59 29.6 13.62 29.62 13.65C29.64 13.67 29.67 13.68 29.71 13.69Z" fill="#FFFFFF" fill-opacity="1.000000" fill-rule="nonzero"/>
		<path id="Vector" d="M43.67 13.12C43.7 13.12 43.74 13.11 43.76 13.09C43.78 13.07 43.8 13.04 43.8 13C43.8 12.97 43.79 12.94 43.77 12.91C43.75 12.89 43.72 12.87 43.68 12.87C43.67 12.86 43.65 12.87 43.63 12.87C43.61 12.88 43.6 12.89 43.59 12.9C43.57 12.91 43.56 12.93 43.56 12.95C43.55 12.96 43.55 12.98 43.55 13C43.55 13.01 43.55 13.03 43.55 13.05C43.56 13.06 43.57 13.07 43.58 13.09C43.59 13.1 43.61 13.11 43.62 13.11C43.64 13.12 43.65 13.12 43.67 13.12Z" fill="#FFFFFF" fill-opacity="1.000000" fill-rule="nonzero"/>
		<path id="Vector" d="M44.15 13.66C44.19 13.66 44.22 13.64 44.24 13.62C44.27 13.6 44.28 13.57 44.28 13.53C44.28 13.52 44.28 13.5 44.27 13.48C44.27 13.47 44.26 13.45 44.25 13.44C44.23 13.43 44.22 13.42 44.21 13.41C44.19 13.41 44.17 13.4 44.16 13.4C44.14 13.4 44.12 13.4 44.11 13.41C44.09 13.42 44.08 13.42 44.06 13.44C44.05 13.45 44.04 13.46 44.03 13.48C44.02 13.49 44.02 13.51 44.02 13.53C44.02 13.55 44.02 13.56 44.03 13.58C44.04 13.6 44.05 13.61 44.06 13.62C44.07 13.63 44.09 13.64 44.1 13.65C44.12 13.66 44.14 13.66 44.15 13.66Z" fill="#FFFFFF" fill-opacity="1.000000" fill-rule="nonzero"/>
		<path id="Vector" d="M45.34 23.54C45.3 23.53 45.27 23.55 45.25 23.57C45.22 23.59 45.21 23.62 45.21 23.66C45.21 23.67 45.21 23.69 45.22 23.71C45.22 23.72 45.23 23.74 45.25 23.75C45.26 23.76 45.27 23.77 45.29 23.78C45.31 23.79 45.32 23.79 45.34 23.79C45.38 23.79 45.41 23.77 45.43 23.75C45.45 23.73 45.47 23.69 45.46 23.66C45.46 23.63 45.45 23.59 45.43 23.57C45.4 23.55 45.37 23.54 45.34 23.54Z" fill="#FFFFFF" fill-opacity="1.000000" fill-rule="nonzero"/>
		<path id="Vector" d="M40.1 10.81C40.11 10.81 40.13 10.8 40.14 10.8C40.16 10.79 40.17 10.78 40.18 10.77C40.19 10.76 40.2 10.74 40.21 10.73C40.21 10.71 40.22 10.69 40.22 10.68C40.22 10.66 40.21 10.64 40.21 10.63C40.2 10.61 40.19 10.6 40.18 10.59C40.16 10.58 40.15 10.57 40.13 10.56C40.12 10.56 40.1 10.56 40.08 10.56C40.05 10.56 40.02 10.57 40 10.59C39.97 10.62 39.96 10.65 39.96 10.68C39.96 10.7 39.96 10.72 39.97 10.73C39.97 10.75 39.98 10.76 40 10.78C40.01 10.79 40.03 10.8 40.04 10.8C40.06 10.81 40.08 10.81 40.1 10.81Z" fill="#FFFFFF" fill-opacity="1.000000" fill-rule="nonzero"/>
		<path id="Vector" d="M34.44 10.61C34.46 10.61 34.47 10.61 34.49 10.6C34.51 10.59 34.52 10.58 34.53 10.57C34.54 10.56 34.55 10.54 34.56 10.53C34.57 10.51 34.57 10.49 34.57 10.48C34.57 10.44 34.56 10.41 34.53 10.39C34.51 10.37 34.48 10.35 34.45 10.35C34.43 10.35 34.41 10.35 34.4 10.36C34.38 10.37 34.36 10.38 34.35 10.39C34.34 10.4 34.33 10.41 34.32 10.43C34.32 10.45 34.31 10.46 34.31 10.48C34.32 10.51 34.33 10.54 34.35 10.57C34.38 10.59 34.41 10.61 34.44 10.61Z" fill="#FFFFFF" fill-opacity="1.000000" fill-rule="nonzero"/>
		<path id="Vector" d="M46.06 21.51C46.04 21.51 46.01 21.52 45.99 21.54C45.97 21.55 45.96 21.57 45.95 21.59C45.94 21.62 45.94 21.64 45.94 21.67C45.95 21.69 45.96 21.71 45.98 21.73C46 21.75 46.02 21.76 46.04 21.76C46.07 21.77 46.09 21.77 46.12 21.76C46.14 21.75 46.16 21.73 46.17 21.71C46.19 21.69 46.19 21.66 46.19 21.64C46.19 21.6 46.18 21.57 46.15 21.55C46.13 21.53 46.1 21.51 46.06 21.51Z" fill="#FFFFFF" fill-opacity="1.000000" fill-rule="nonzero"/>
		<path id="Vector" d="M39.42 28.41C39.39 28.41 39.36 28.43 39.34 28.45C39.31 28.48 39.3 28.51 39.3 28.54C39.3 28.56 39.31 28.58 39.31 28.59C39.32 28.61 39.33 28.62 39.34 28.63C39.35 28.64 39.37 28.65 39.38 28.66C39.4 28.66 39.41 28.67 39.43 28.66C39.46 28.66 39.5 28.65 39.52 28.63C39.54 28.61 39.56 28.57 39.56 28.54C39.56 28.52 39.55 28.51 39.55 28.49C39.54 28.47 39.53 28.46 39.52 28.45C39.51 28.43 39.49 28.42 39.47 28.42C39.46 28.41 39.44 28.41 39.42 28.41Z" fill="#FFFFFF" fill-opacity="1.000000" fill-rule="nonzero"/>
		<path id="Vector" d="M30.19 25.88C30.17 25.88 30.16 25.89 30.14 25.89C30.12 25.9 30.11 25.91 30.1 25.93C30.09 25.94 30.08 25.95 30.08 25.97C30.07 25.99 30.07 26 30.07 26.02C30.07 26.04 30.08 26.05 30.09 26.07C30.1 26.08 30.11 26.1 30.12 26.11C30.13 26.12 30.15 26.13 30.17 26.13C30.18 26.13 30.2 26.14 30.22 26.13C30.23 26.13 30.25 26.13 30.26 26.12C30.28 26.11 30.29 26.1 30.3 26.09C30.31 26.07 30.32 26.06 30.32 26.04C30.33 26.03 30.33 26.01 30.33 25.99C30.33 25.98 30.32 25.96 30.31 25.95C30.31 25.93 30.29 25.92 30.28 25.91C30.27 25.9 30.25 25.89 30.24 25.89C30.22 25.88 30.21 25.88 30.19 25.88Z" fill="#FFFFFF" fill-opacity="1.000000" fill-rule="nonzero"/>
		<path id="Vector" d="M35.87 28.68C35.84 28.69 35.81 28.7 35.78 28.72C35.76 28.75 35.75 28.78 35.75 28.81C35.74 28.84 35.75 28.86 35.77 28.88C35.78 28.91 35.8 28.92 35.82 28.93C35.85 28.94 35.87 28.95 35.9 28.94C35.93 28.94 35.95 28.92 35.97 28.9C35.98 28.89 36 28.86 36 28.84C36.01 28.81 36 28.79 35.99 28.76C35.98 28.74 35.97 28.72 35.95 28.7C35.92 28.69 35.9 28.68 35.87 28.68Z" fill="#FFFFFF" fill-opacity="1.000000" fill-rule="nonzero"/>
		<path id="Vector" d="M43.18 26.37C43.14 26.37 43.11 26.38 43.09 26.4C43.06 26.43 43.04 26.46 43.04 26.49C43.04 26.51 43.04 26.52 43.05 26.54C43.06 26.56 43.07 26.57 43.08 26.59C43.09 26.6 43.11 26.61 43.12 26.61C43.14 26.62 43.16 26.62 43.18 26.62C43.21 26.62 43.24 26.61 43.26 26.59C43.29 26.56 43.3 26.53 43.3 26.5C43.3 26.48 43.3 26.46 43.29 26.45C43.29 26.43 43.28 26.42 43.27 26.41C43.25 26.4 43.24 26.39 43.23 26.38C43.21 26.37 43.19 26.37 43.18 26.37Z" fill="#FFFFFF" fill-opacity="1.000000" fill-rule="nonzero"/>
		<path id="Vector" d="M36.6 28.73C36.58 28.73 36.56 28.74 36.54 28.75C36.53 28.75 36.51 28.76 36.5 28.78C36.49 28.79 36.48 28.8 36.47 28.82C36.47 28.84 36.46 28.85 36.47 28.87C36.47 28.91 36.48 28.94 36.51 28.96C36.53 28.98 36.56 28.99 36.6 28.99C36.63 28.99 36.66 28.98 36.68 28.95C36.71 28.93 36.72 28.9 36.72 28.86C36.72 28.83 36.71 28.8 36.68 28.78C36.66 28.75 36.63 28.74 36.6 28.73Z" fill="#FFFFFF" fill-opacity="1.000000" fill-rule="nonzero"/>
		<path id="Vector" d="M42.61 26.83C42.58 26.83 42.55 26.84 42.53 26.87C42.5 26.89 42.49 26.92 42.49 26.96C42.49 26.99 42.51 27.02 42.53 27.04C42.56 27.07 42.59 27.08 42.62 27.08C42.65 27.08 42.69 27.07 42.71 27.05C42.73 27.02 42.75 26.99 42.75 26.96C42.75 26.94 42.75 26.92 42.74 26.91C42.73 26.89 42.72 26.88 42.71 26.86C42.7 26.85 42.68 26.84 42.67 26.83C42.65 26.83 42.63 26.83 42.61 26.83Z" fill="#FFFFFF" fill-opacity="1.000000" fill-rule="nonzero"/>
		<path id="Vector" d="M31.87 27.24C31.85 27.24 31.84 27.24 31.82 27.25C31.8 27.26 31.79 27.27 31.78 27.28C31.76 27.29 31.75 27.3 31.75 27.32C31.74 27.34 31.74 27.36 31.74 27.37C31.73 27.39 31.74 27.41 31.74 27.42C31.75 27.44 31.76 27.45 31.77 27.46C31.78 27.48 31.79 27.48 31.81 27.49C31.82 27.5 31.84 27.5 31.86 27.5C31.87 27.5 31.89 27.5 31.91 27.49C31.92 27.49 31.94 27.48 31.95 27.47C31.96 27.46 31.97 27.44 31.98 27.43C31.98 27.41 31.99 27.4 31.99 27.38C31.99 27.35 31.98 27.31 31.96 27.29C31.93 27.26 31.9 27.25 31.87 27.24Z" fill="#FFFFFF" fill-opacity="1.000000" fill-rule="nonzero"/>
		<path id="Vector" d="M30.71 12.66C30.74 12.65 30.77 12.64 30.8 12.61C30.82 12.59 30.83 12.56 30.83 12.52C30.83 12.51 30.83 12.49 30.82 12.47C30.81 12.46 30.8 12.44 30.79 12.43C30.78 12.42 30.76 12.41 30.74 12.4C30.73 12.4 30.71 12.4 30.69 12.4C30.67 12.4 30.66 12.4 30.64 12.41C30.63 12.42 30.62 12.43 30.61 12.44C30.59 12.46 30.59 12.47 30.58 12.49C30.58 12.5 30.58 12.52 30.58 12.53C30.58 12.57 30.6 12.6 30.62 12.62C30.64 12.64 30.68 12.66 30.71 12.66Z" fill="#FFFFFF" fill-opacity="1.000000" fill-rule="nonzero"/>
		<path id="Vector" d="M27.6 18.93C27.61 18.93 27.63 18.93 27.65 18.92C27.66 18.92 27.68 18.91 27.69 18.9C27.71 18.89 27.72 18.87 27.72 18.86C27.73 18.84 27.73 18.82 27.73 18.81C27.74 18.77 27.72 18.74 27.7 18.72C27.68 18.69 27.65 18.68 27.62 18.68C27.58 18.67 27.55 18.69 27.52 18.71C27.49 18.73 27.48 18.77 27.48 18.8C27.48 18.83 27.49 18.87 27.51 18.89C27.53 18.91 27.56 18.93 27.6 18.93Z" fill="#FFFFFF" fill-opacity="1.000000" fill-rule="nonzero"/>
		<path id="Vector" d="M42.02 11.76C42.04 11.76 42.05 11.75 42.07 11.75C42.08 11.74 42.1 11.73 42.11 11.72C42.12 11.71 42.13 11.69 42.13 11.68C42.14 11.66 42.14 11.64 42.14 11.63C42.14 11.59 42.13 11.56 42.1 11.54C42.08 11.52 42.05 11.5 42.01 11.5C42 11.5 41.98 11.51 41.96 11.51C41.95 11.52 41.93 11.53 41.92 11.54C41.91 11.55 41.9 11.57 41.89 11.59C41.88 11.6 41.88 11.62 41.88 11.64C41.88 11.65 41.89 11.67 41.89 11.69C41.9 11.7 41.91 11.72 41.92 11.73C41.94 11.74 41.95 11.75 41.97 11.75C41.99 11.76 42 11.76 42.02 11.76Z" fill="#FFFFFF" fill-opacity="1.000000" fill-rule="nonzero"/>
		<path id="Vector" d="M46.2 20.8C46.16 20.81 46.13 20.82 46.11 20.84C46.08 20.87 46.07 20.9 46.07 20.93C46.07 20.96 46.08 21 46.1 21.02C46.12 21.05 46.16 21.06 46.19 21.06C46.21 21.06 46.22 21.06 46.24 21.06C46.26 21.05 46.27 21.04 46.29 21.03C46.3 21.02 46.31 21 46.31 20.98C46.32 20.97 46.32 20.95 46.32 20.93C46.32 20.9 46.31 20.87 46.28 20.84C46.26 20.82 46.23 20.81 46.2 20.8Z" fill="#FFFFFF" fill-opacity="1.000000" fill-rule="nonzero"/>
		<path id="Vector" d="M40.78 27.93C40.77 27.92 40.75 27.93 40.73 27.93C40.72 27.94 40.7 27.95 40.69 27.96C40.67 27.97 40.66 27.99 40.66 28.01C40.65 28.02 40.65 28.04 40.65 28.06C40.65 28.09 40.67 28.12 40.69 28.15C40.71 28.17 40.75 28.18 40.78 28.18C40.81 28.18 40.85 28.17 40.87 28.14C40.89 28.12 40.91 28.09 40.91 28.06C40.91 28.02 40.9 27.99 40.87 27.97C40.85 27.94 40.82 27.93 40.78 27.93Z" fill="#FFFFFF" fill-opacity="1.000000" fill-rule="nonzero"/>
		<path id="Vector" d="M27.96 21.65C27.95 21.61 27.94 21.58 27.92 21.56C27.89 21.54 27.86 21.53 27.83 21.53C27.79 21.53 27.76 21.54 27.74 21.56C27.72 21.59 27.7 21.62 27.7 21.65C27.7 21.67 27.71 21.69 27.71 21.7C27.72 21.72 27.73 21.73 27.74 21.75C27.76 21.76 27.77 21.77 27.79 21.77C27.8 21.78 27.82 21.78 27.84 21.78C27.87 21.78 27.9 21.76 27.92 21.74C27.95 21.71 27.96 21.68 27.96 21.65Z" fill="#FFFFFF" fill-opacity="1.000000" fill-rule="nonzero"/>
		<path id="Vector" d="M27.74 20.23C27.74 20.2 27.72 20.17 27.7 20.15C27.67 20.12 27.64 20.11 27.61 20.11C27.59 20.11 27.57 20.11 27.56 20.12C27.54 20.13 27.53 20.14 27.51 20.15C27.5 20.16 27.49 20.18 27.49 20.2C27.48 20.21 27.48 20.23 27.48 20.25C27.48 20.28 27.5 20.31 27.52 20.33C27.55 20.35 27.58 20.36 27.61 20.36C27.63 20.36 27.65 20.36 27.66 20.35C27.68 20.35 27.69 20.34 27.7 20.32C27.71 20.31 27.72 20.3 27.73 20.28C27.73 20.27 27.74 20.25 27.74 20.23Z" fill="#FFFFFF" fill-opacity="1.000000" fill-rule="nonzero"/>
		<path id="Vector" d="M28.03 22.22C28.01 22.22 27.99 22.22 27.97 22.22C27.96 22.23 27.94 22.24 27.93 22.25C27.92 22.27 27.91 22.28 27.9 22.3C27.89 22.31 27.89 22.33 27.89 22.35C27.89 22.37 27.9 22.38 27.9 22.4C27.91 22.41 27.92 22.43 27.93 22.44C27.94 22.45 27.96 22.46 27.97 22.46C27.99 22.47 28 22.47 28.02 22.47C28.05 22.47 28.09 22.46 28.11 22.44C28.13 22.41 28.15 22.38 28.15 22.35C28.15 22.31 28.14 22.28 28.11 22.26C28.09 22.23 28.06 22.22 28.03 22.22Z" fill="#FFFFFF" fill-opacity="1.000000" fill-rule="nonzero"/>
		<path id="Vector" d="M29.28 24.77C29.25 24.78 29.22 24.79 29.2 24.82C29.17 24.84 29.16 24.87 29.16 24.91C29.16 24.92 29.17 24.94 29.17 24.95C29.18 24.97 29.19 24.98 29.2 24.99C29.21 25.01 29.23 25.02 29.24 25.02C29.26 25.03 29.27 25.03 29.29 25.03C29.31 25.03 29.32 25.03 29.34 25.02C29.35 25.02 29.37 25.01 29.38 24.99C29.39 24.98 29.4 24.97 29.41 24.95C29.41 24.94 29.42 24.92 29.42 24.91C29.42 24.89 29.41 24.87 29.41 24.85C29.4 24.84 29.39 24.82 29.38 24.81C29.36 24.8 29.35 24.79 29.33 24.78C29.32 24.78 29.3 24.77 29.28 24.77Z" fill="#FFFFFF" fill-opacity="1.000000" fill-rule="nonzero"/>
		<path id="Vector" d="M28.27 22.89C28.25 22.89 28.23 22.89 28.22 22.9C28.2 22.9 28.19 22.91 28.18 22.92C28.16 22.93 28.15 22.95 28.15 22.96C28.14 22.98 28.14 22.99 28.14 23.01C28.13 23.04 28.14 23.06 28.15 23.08C28.16 23.1 28.18 23.12 28.21 23.13C28.23 23.14 28.25 23.15 28.28 23.15C28.3 23.14 28.33 23.13 28.35 23.11C28.37 23.1 28.38 23.08 28.38 23.05C28.39 23.03 28.39 23 28.38 22.98C28.37 22.95 28.36 22.93 28.34 22.92C28.32 22.9 28.29 22.89 28.27 22.89Z" fill="#FFFFFF" fill-opacity="1.000000" fill-rule="nonzero"/>
		<path id="Vector" d="M45.34 15.46C45.37 15.45 45.4 15.44 45.42 15.41C45.44 15.39 45.46 15.36 45.46 15.32C45.45 15.29 45.44 15.26 45.42 15.24C45.39 15.21 45.36 15.2 45.33 15.2C45.31 15.2 45.29 15.2 45.28 15.21C45.26 15.22 45.25 15.23 45.24 15.24C45.22 15.25 45.21 15.26 45.21 15.28C45.2 15.29 45.2 15.31 45.2 15.33C45.2 15.34 45.2 15.36 45.21 15.38C45.21 15.39 45.22 15.41 45.24 15.42C45.25 15.43 45.27 15.44 45.28 15.45C45.3 15.45 45.32 15.46 45.34 15.46Z" fill="#FFFFFF" fill-opacity="1.000000" fill-rule="nonzero"/>
		<path id="Vector" d="M28.01 16.82C28.02 16.82 28.04 16.82 28.06 16.81C28.07 16.81 28.09 16.8 28.1 16.78C28.11 16.77 28.12 16.76 28.13 16.74C28.14 16.72 28.14 16.71 28.14 16.69C28.14 16.66 28.12 16.62 28.1 16.6C28.07 16.58 28.04 16.57 28.01 16.57C27.99 16.57 27.97 16.57 27.96 16.58C27.94 16.58 27.93 16.59 27.92 16.61C27.91 16.62 27.9 16.63 27.89 16.65C27.89 16.66 27.88 16.68 27.88 16.69C27.88 16.73 27.9 16.76 27.92 16.78C27.94 16.81 27.97 16.82 28.01 16.82Z" fill="#FFFFFF" fill-opacity="1.000000" fill-rule="nonzero"/>
		<path id="Vector" d="M28.89 24.18C28.88 24.18 28.86 24.18 28.85 24.18C28.83 24.19 28.82 24.2 28.81 24.21C28.79 24.22 28.79 24.24 28.78 24.25C28.77 24.27 28.77 24.29 28.77 24.3C28.77 24.32 28.78 24.34 28.78 24.35C28.79 24.37 28.8 24.38 28.81 24.39C28.82 24.4 28.84 24.41 28.85 24.42C28.87 24.42 28.89 24.43 28.9 24.43C28.92 24.43 28.94 24.42 28.95 24.42C28.97 24.41 28.98 24.4 28.99 24.39C29 24.37 29.01 24.36 29.02 24.34C29.02 24.33 29.03 24.31 29.02 24.29C29.02 24.28 29.02 24.26 29.01 24.25C29.01 24.23 29 24.22 28.98 24.21C28.97 24.2 28.96 24.19 28.94 24.18C28.93 24.18 28.91 24.17 28.89 24.18Z" fill="#FFFFFF" fill-opacity="1.000000" fill-rule="nonzero"/>
		<path id="Vector" d="M33.79 28.2C33.77 28.2 33.75 28.2 33.74 28.21C33.72 28.22 33.71 28.23 33.69 28.24C33.68 28.25 33.67 28.27 33.67 28.28C33.66 28.3 33.66 28.32 33.66 28.34C33.66 28.35 33.66 28.37 33.67 28.38C33.68 28.4 33.69 28.41 33.7 28.42C33.71 28.43 33.73 28.44 33.74 28.45C33.76 28.45 33.77 28.45 33.79 28.45C33.82 28.45 33.86 28.44 33.88 28.41C33.9 28.39 33.91 28.36 33.91 28.32C33.91 28.29 33.9 28.26 33.88 28.24C33.85 28.21 33.82 28.2 33.79 28.2Z" fill="#FFFFFF" fill-opacity="1.000000" fill-rule="nonzero"/>
		<path id="Vector" d="M38 10.33C38.04 10.32 38.07 10.31 38.09 10.28C38.11 10.26 38.12 10.23 38.12 10.19C38.12 10.16 38.11 10.13 38.08 10.11C38.06 10.09 38.03 10.07 37.99 10.07C37.98 10.07 37.96 10.08 37.95 10.08C37.93 10.09 37.92 10.1 37.9 10.11C37.89 10.12 37.88 10.13 37.88 10.15C37.87 10.17 37.87 10.18 37.87 10.2C37.87 10.22 37.87 10.23 37.88 10.25C37.88 10.27 37.89 10.28 37.91 10.29C37.92 10.3 37.94 10.31 37.95 10.32C37.97 10.33 37.99 10.33 38 10.33Z" fill="#FFFFFF" fill-opacity="1.000000" fill-rule="nonzero"/>
		<path id="Vector" d="M38.03 28.68C38 28.68 37.96 28.69 37.94 28.72C37.91 28.74 37.9 28.77 37.9 28.8C37.9 28.83 37.9 28.85 37.91 28.88C37.93 28.9 37.95 28.91 37.97 28.93C37.99 28.94 38.02 28.94 38.04 28.94C38.07 28.93 38.09 28.92 38.11 28.91C38.13 28.89 38.14 28.87 38.15 28.84C38.15 28.82 38.15 28.79 38.14 28.77C38.14 28.74 38.12 28.72 38.1 28.71C38.08 28.69 38.05 28.68 38.03 28.68Z" fill="#FFFFFF" fill-opacity="1.000000" fill-rule="nonzero"/>
		<path id="Vector" d="M10.61 26.68C11.69 24.62 12.86 22.6 13.83 20.47C14.89 18.13 13.56 15.71 11.09 15.19C8.81 14.7 6.71 16.27 6.43 18.66C6.19 20.77 7.8 22.55 10.07 22.66C10.41 22.68 10.75 22.66 11.22 22.66L8.87 26.68L10.61 26.68L10.61 26.68ZM10.44 21.41C8.92 21.43 7.82 20.39 7.81 18.93C7.8 17.46 8.9 16.37 10.37 16.39C11.79 16.4 12.81 17.43 12.82 18.88C12.84 20.34 11.85 21.39 10.44 21.41Z" fill="#FFFFFF" fill-opacity="1.000000" fill-rule="nonzero"/>
		<path id="Vector" d="M3.69 15.24C2.89 15.62 2.33 15.85 1.79 16.13C1.2 16.44 0.62 16.78 0 17.13C0.02 17.58 0.04 17.98 0.06 18.46L2.16 17.43L2.16 25.53L1.2 25.53L1.2 26.66L4.68 26.66L4.68 25.53L3.72 25.53C3.72 25.53 3.73 21.94 3.72 20.32C3.71 18.71 3.75 17.11 3.69 15.24Z" fill="#FFFFFF" fill-opacity="1.000000" fill-rule="nonzero"/>
		<path id="Vector" d="M0.06 11.13L15.96 11.13L15.96 11.9L0.06 11.9L0.06 11.13Z" fill="#FFFFFF" fill-opacity="1.000000" fill-rule="evenodd"/>
		<path id="Vector" d="M0.06 29.93L15.96 29.93L15.96 30.71L0.06 30.71L0.06 29.93Z" fill="#FFFFFF" fill-opacity="1.000000" fill-rule="evenodd"/>
		<path id="Vector" d="M58.79 11.13L76.93 11.13L76.93 11.9L58.79 11.9L58.79 11.13Z" fill="#FFFFFF" fill-opacity="1.000000" fill-rule="evenodd"/>
		<path id="Vector" d="M58.79 29.93L76.93 29.93L76.93 30.71L58.79 30.71L58.79 29.93Z" fill="#FFFFFF" fill-opacity="1.000000" fill-rule="evenodd"/>
		<path id="Vector" d="M59.89 23.61C59.89 24.2 60.04 24.79 60.34 25.3C60.64 25.82 61.06 26.25 61.58 26.55C62.09 26.85 62.68 27.01 63.27 27.02C63.87 27.02 64.45 26.87 64.97 26.57C65.49 26.28 65.92 25.85 66.23 25.34C66.53 24.83 66.69 24.25 66.7 23.65C66.71 23.05 66.56 22.47 66.27 21.95C65.97 21.43 65.55 20.99 65.04 20.69C65.57 20.32 65.97 19.79 66.18 19.17C66.39 18.56 66.4 17.89 66.2 17.27C66.01 16.66 65.62 16.12 65.1 15.73C64.57 15.35 63.94 15.14 63.29 15.14C62.65 15.14 62.01 15.35 61.49 15.73C60.97 16.12 60.58 16.66 60.39 17.27C60.19 17.89 60.2 18.56 60.41 19.17C60.62 19.79 61.02 20.32 61.55 20.69C61.04 20.99 60.62 21.42 60.33 21.93C60.04 22.44 59.89 23.02 59.89 23.61ZM61.46 18.19C61.46 17.83 61.56 17.48 61.76 17.18C61.96 16.88 62.24 16.64 62.57 16.5C62.9 16.36 63.27 16.32 63.62 16.38C63.98 16.45 64.31 16.61 64.57 16.86C64.83 17.11 65.01 17.43 65.09 17.78C65.17 18.14 65.14 18.5 65.01 18.84C64.89 19.18 64.66 19.47 64.37 19.68C64.08 19.89 63.73 20.01 63.37 20.03C63.34 20.03 63.32 20.02 63.29 20.02C63.27 20.02 63.24 20.03 63.22 20.03C62.74 20.01 62.3 19.81 61.97 19.46C61.64 19.12 61.46 18.67 61.46 18.19L61.46 18.19ZM63.29 21.41C63.73 21.41 64.15 21.54 64.52 21.78C64.88 22.02 65.16 22.36 65.33 22.77C65.49 23.17 65.54 23.61 65.45 24.04C65.37 24.46 65.16 24.85 64.85 25.16C64.54 25.47 64.15 25.68 63.72 25.76C63.3 25.85 62.85 25.8 62.45 25.64C62.05 25.47 61.71 25.19 61.47 24.83C61.22 24.47 61.1 24.04 61.1 23.61C61.1 23.02 61.33 22.46 61.74 22.05C62.15 21.64 62.71 21.41 63.29 21.41L63.29 21.41Z" fill="#FFFFFF" fill-opacity="1.000000" fill-rule="nonzero"/>
		<path id="Vector" d="M72.52 27C71.71 27 71.02 26.79 70.44 26.37C69.87 25.95 69.41 25.37 69.06 24.63L70.05 23.97C70.31 24.55 70.65 25 71.06 25.34C71.47 25.66 71.98 25.83 72.57 25.83C73.22 25.83 73.72 25.64 74.07 25.28C74.44 24.9 74.62 24.39 74.62 23.74C74.62 22.95 74.38 22.36 73.91 21.99C73.43 21.61 72.69 21.42 71.68 21.42L71.68 20.27C72.6 20.27 73.3 20.09 73.77 19.74C74.25 19.39 74.49 18.87 74.49 18.17C74.49 17.63 74.33 17.2 74.01 16.87C73.68 16.55 73.22 16.39 72.61 16.39C72.03 16.39 71.54 16.56 71.13 16.91C70.72 17.26 70.42 17.74 70.25 18.35L69.25 17.78C69.44 17.24 69.69 16.78 70.01 16.41C70.33 16.03 70.72 15.74 71.16 15.54C71.6 15.32 72.09 15.21 72.62 15.21C73.55 15.21 74.28 15.48 74.82 16C75.38 16.53 75.65 17.23 75.65 18.1C75.65 18.64 75.54 19.12 75.3 19.54C75.08 19.96 74.77 20.29 74.37 20.53C73.98 20.77 73.55 20.9 73.06 20.91L73.06 20.69C73.87 20.69 74.53 20.97 75.05 21.52C75.59 22.07 75.85 22.81 75.85 23.74C75.85 24.42 75.72 25 75.45 25.48C75.19 25.97 74.8 26.35 74.31 26.61C73.81 26.87 73.21 27 72.52 27Z" fill="#FFFFFF" fill-opacity="1.000000" fill-rule="nonzero"/>
	</g>
</svg>
