<svg width="252.311035" height="388.322266" viewBox="0 0 252.311 388.322" fill="none" xmlns="http://www.w3.org/2000/svg" xmlns:xlink="http://www.w3.org/1999/xlink">
	<desc>
			Created with Pixso.
	</desc>
	<defs/>
	<g opacity="0.300000">
		<path id="Vector" d="M229.52 270.12L229.52 343.69L130.77 343.69L130.77 270.12L229.52 270.12ZM120.55 13.69L120.55 86.24L22.3 86.24L22.3 95.72L120.55 95.72L120.55 173.44L22.3 173.44L22.3 182.92L120.55 182.92L120.55 260.64L22.3 260.64L22.3 270.12L120.55 270.12L120.55 343.69L21.79 343.69L21.79 13.69L120.55 13.69ZM229.52 95.72L229.52 173.44L130.77 173.44L130.77 95.72L229.52 95.72ZM229.52 182.92L229.52 260.64L130.77 260.64L130.77 182.92L229.52 182.92ZM130.77 86.24L130.77 13.69L229.52 13.69L229.52 86.24L130.77 86.24ZM237.67 356.65L237.67 0.74L13.64 0.74L13.64 356.65L237.67 356.65Z" stroke="#000000" stroke-opacity="1.000000" stroke-width="1.484000" stroke-linejoin="round"/>
		<path id="Vector" d="M106.39 35.39L56.57 76.62" stroke="#000000" stroke-opacity="1.000000" stroke-width="1.484000" stroke-linejoin="round" stroke-linecap="round"/>
		<path id="Vector" d="M205.18 116.13L155.36 157.36" stroke="#000000" stroke-opacity="1.000000" stroke-width="1.484000" stroke-linejoin="round" stroke-linecap="round"/>
		<path id="Vector" d="M92.65 290.51L42.83 331.74" stroke="#000000" stroke-opacity="1.000000" stroke-width="1.484000" stroke-linejoin="round" stroke-linecap="round"/>
		<path id="Vector" d="M80.27 47.41L57.43 66.31" stroke="#000000" stroke-opacity="1.000000" stroke-width="1.484000" stroke-linejoin="round" stroke-linecap="round"/>
		<path id="Vector" d="M201.38 106.68L178.55 125.58" stroke="#000000" stroke-opacity="1.000000" stroke-width="1.484000" stroke-linejoin="round" stroke-linecap="round"/>
		<path id="Vector" d="M89.71 303.39L66.88 322.29" stroke="#000000" stroke-opacity="1.000000" stroke-width="1.484000" stroke-linejoin="round" stroke-linecap="round"/>
		<path id="Vector" d="M82.84 212.34L60.01 231.24" stroke="#000000" stroke-opacity="1.000000" stroke-width="1.484000" stroke-linejoin="round" stroke-linecap="round"/>
		<path id="Vector" d="M199.67 292.23L176.83 311.12" stroke="#000000" stroke-opacity="1.000000" stroke-width="1.484000" stroke-linejoin="round" stroke-linecap="round"/>
		<path id="Vector" d="M0.74 356.42L0.74 387.58L251.56 387.58L251.56 356.42L0.74 356.42Z" stroke="#000000" stroke-opacity="1.000000" stroke-width="1.484000" stroke-linejoin="round"/>
	</g>
</svg>
